%TF.GenerationSoftware,KiCad,Pcbnew,(6.0.9)*%
%TF.CreationDate,2022-12-07T09:24:47+01:00*%
%TF.ProjectId,NCS199A3R_test_panel,4e435331-3939-4413-9352-5f746573745f,rev?*%
%TF.SameCoordinates,Original*%
%TF.FileFunction,Copper,L1,Top*%
%TF.FilePolarity,Positive*%
%FSLAX46Y46*%
G04 Gerber Fmt 4.6, Leading zero omitted, Abs format (unit mm)*
G04 Created by KiCad (PCBNEW (6.0.9)) date 2022-12-07 09:24:47*
%MOMM*%
%LPD*%
G01*
G04 APERTURE LIST*
G04 Aperture macros list*
%AMRoundRect*
0 Rectangle with rounded corners*
0 $1 Rounding radius*
0 $2 $3 $4 $5 $6 $7 $8 $9 X,Y pos of 4 corners*
0 Add a 4 corners polygon primitive as box body*
4,1,4,$2,$3,$4,$5,$6,$7,$8,$9,$2,$3,0*
0 Add four circle primitives for the rounded corners*
1,1,$1+$1,$2,$3*
1,1,$1+$1,$4,$5*
1,1,$1+$1,$6,$7*
1,1,$1+$1,$8,$9*
0 Add four rect primitives between the rounded corners*
20,1,$1+$1,$2,$3,$4,$5,0*
20,1,$1+$1,$4,$5,$6,$7,0*
20,1,$1+$1,$6,$7,$8,$9,0*
20,1,$1+$1,$8,$9,$2,$3,0*%
G04 Aperture macros list end*
%TA.AperFunction,ComponentPad*%
%ADD10R,1.700000X1.700000*%
%TD*%
%TA.AperFunction,SMDPad,CuDef*%
%ADD11RoundRect,0.250000X0.450000X-0.350000X0.450000X0.350000X-0.450000X0.350000X-0.450000X-0.350000X0*%
%TD*%
%TA.AperFunction,SMDPad,CuDef*%
%ADD12RoundRect,0.237500X-0.237500X0.250000X-0.237500X-0.250000X0.237500X-0.250000X0.237500X0.250000X0*%
%TD*%
%TA.AperFunction,SMDPad,CuDef*%
%ADD13RoundRect,0.237500X-0.237500X0.300000X-0.237500X-0.300000X0.237500X-0.300000X0.237500X0.300000X0*%
%TD*%
%TA.AperFunction,SMDPad,CuDef*%
%ADD14R,1.500000X0.400000*%
%TD*%
%TA.AperFunction,SMDPad,CuDef*%
%ADD15RoundRect,0.237500X0.237500X-0.300000X0.237500X0.300000X-0.237500X0.300000X-0.237500X-0.300000X0*%
%TD*%
%TA.AperFunction,SMDPad,CuDef*%
%ADD16RoundRect,0.237500X0.237500X-0.250000X0.237500X0.250000X-0.237500X0.250000X-0.237500X-0.250000X0*%
%TD*%
%TA.AperFunction,Conductor*%
%ADD17C,0.500000*%
%TD*%
%TA.AperFunction,Conductor*%
%ADD18C,0.400000*%
%TD*%
%TA.AperFunction,Conductor*%
%ADD19C,1.000000*%
%TD*%
G04 APERTURE END LIST*
D10*
%TO.P,TP5,1,1*%
%TO.N,Board_1-/OUT*%
X47000000Y-19000000D03*
%TD*%
D11*
%TO.P,R3,1*%
%TO.N,Board_2-/IN+*%
X30000000Y-43500000D03*
%TO.P,R3,2*%
%TO.N,Board_2-/IN-*%
X30000000Y-41500000D03*
%TD*%
D12*
%TO.P,R2,1*%
%TO.N,Board_0-/REF*%
X20500000Y-19587500D03*
%TO.P,R2,2*%
%TO.N,Board_0-GND*%
X20500000Y-21412500D03*
%TD*%
D13*
%TO.P,C1,1*%
%TO.N,Board_0-/REF*%
X22500000Y-19637500D03*
%TO.P,C1,2*%
%TO.N,Board_0-GND*%
X22500000Y-21362500D03*
%TD*%
D10*
%TO.P,TP3,1,1*%
%TO.N,Board_3-/IN+*%
X51000000Y-47000000D03*
%TD*%
%TO.P,TP2,1,1*%
%TO.N,Board_0-GND*%
X23000000Y-28000000D03*
%TD*%
%TO.P,TP4,1,1*%
%TO.N,Board_3-/IN-*%
X51000000Y-38000000D03*
%TD*%
%TO.P,TP5,1,1*%
%TO.N,Board_3-/OUT*%
X47000000Y-38000000D03*
%TD*%
D12*
%TO.P,R2,1*%
%TO.N,Board_1-/REF*%
X41500000Y-19587500D03*
%TO.P,R2,2*%
%TO.N,Board_1-GND*%
X41500000Y-21412500D03*
%TD*%
D14*
%TO.P,U1,1,REF*%
%TO.N,Board_3-/REF*%
X45670000Y-41525000D03*
%TO.P,U1,2,GND*%
%TO.N,Board_3-GND*%
X45670000Y-42175000D03*
%TO.P,U1,3,Vs*%
%TO.N,Board_3-+3.3V*%
X45670000Y-42825000D03*
%TO.P,U1,4,+IN*%
%TO.N,Board_3-/IN+*%
X48330000Y-42825000D03*
%TO.P,U1,5,-IN*%
%TO.N,Board_3-/IN-*%
X48330000Y-42175000D03*
%TO.P,U1,6,OUT*%
%TO.N,Board_3-/OUT*%
X48330000Y-41525000D03*
%TD*%
D10*
%TO.P,TP2,1,1*%
%TO.N,Board_3-GND*%
X44000000Y-47000000D03*
%TD*%
%TO.P,TP5,1,1*%
%TO.N,Board_2-/OUT*%
X26000000Y-38000000D03*
%TD*%
D15*
%TO.P,C2,1*%
%TO.N,Board_1-+3.3V*%
X43500000Y-25362500D03*
%TO.P,C2,2*%
%TO.N,Board_1-GND*%
X43500000Y-23637500D03*
%TD*%
%TO.P,C2,1*%
%TO.N,Board_2-+3.3V*%
X22500000Y-44362500D03*
%TO.P,C2,2*%
%TO.N,Board_2-GND*%
X22500000Y-42637500D03*
%TD*%
%TO.P,C2,1*%
%TO.N,Board_3-+3.3V*%
X43500000Y-44362500D03*
%TO.P,C2,2*%
%TO.N,Board_3-GND*%
X43500000Y-42637500D03*
%TD*%
D11*
%TO.P,R3,1*%
%TO.N,Board_1-/IN+*%
X51000000Y-24500000D03*
%TO.P,R3,2*%
%TO.N,Board_1-/IN-*%
X51000000Y-22500000D03*
%TD*%
D13*
%TO.P,C1,1*%
%TO.N,Board_3-/REF*%
X43500000Y-38637500D03*
%TO.P,C1,2*%
%TO.N,Board_3-GND*%
X43500000Y-40362500D03*
%TD*%
D10*
%TO.P,TP1,1,1*%
%TO.N,Board_0-+3.3V*%
X19000000Y-28000000D03*
%TD*%
D13*
%TO.P,C1,1*%
%TO.N,Board_2-/REF*%
X22500000Y-38637500D03*
%TO.P,C1,2*%
%TO.N,Board_2-GND*%
X22500000Y-40362500D03*
%TD*%
D10*
%TO.P,TP4,1,1*%
%TO.N,Board_1-/IN-*%
X51000000Y-19000000D03*
%TD*%
%TO.P,TP4,1,1*%
%TO.N,Board_0-/IN-*%
X30000000Y-19000000D03*
%TD*%
D16*
%TO.P,R1,1*%
%TO.N,Board_1-+3.3V*%
X39500000Y-21412500D03*
%TO.P,R1,2*%
%TO.N,Board_1-/REF*%
X39500000Y-19587500D03*
%TD*%
D11*
%TO.P,R3,1*%
%TO.N,Board_0-/IN+*%
X30000000Y-24500000D03*
%TO.P,R3,2*%
%TO.N,Board_0-/IN-*%
X30000000Y-22500000D03*
%TD*%
%TO.P,R3,1*%
%TO.N,Board_3-/IN+*%
X51000000Y-43500000D03*
%TO.P,R3,2*%
%TO.N,Board_3-/IN-*%
X51000000Y-41500000D03*
%TD*%
D12*
%TO.P,R2,1*%
%TO.N,Board_3-/REF*%
X41500000Y-38587500D03*
%TO.P,R2,2*%
%TO.N,Board_3-GND*%
X41500000Y-40412500D03*
%TD*%
D10*
%TO.P,TP3,1,1*%
%TO.N,Board_1-/IN+*%
X51000000Y-28000000D03*
%TD*%
%TO.P,TP1,1,1*%
%TO.N,Board_1-+3.3V*%
X40000000Y-28000000D03*
%TD*%
%TO.P,TP1,1,1*%
%TO.N,Board_3-+3.3V*%
X40000000Y-47000000D03*
%TD*%
D14*
%TO.P,U1,1,REF*%
%TO.N,Board_2-/REF*%
X24670000Y-41525000D03*
%TO.P,U1,2,GND*%
%TO.N,Board_2-GND*%
X24670000Y-42175000D03*
%TO.P,U1,3,Vs*%
%TO.N,Board_2-+3.3V*%
X24670000Y-42825000D03*
%TO.P,U1,4,+IN*%
%TO.N,Board_2-/IN+*%
X27330000Y-42825000D03*
%TO.P,U1,5,-IN*%
%TO.N,Board_2-/IN-*%
X27330000Y-42175000D03*
%TO.P,U1,6,OUT*%
%TO.N,Board_2-/OUT*%
X27330000Y-41525000D03*
%TD*%
D16*
%TO.P,R1,1*%
%TO.N,Board_0-+3.3V*%
X18500000Y-21412500D03*
%TO.P,R1,2*%
%TO.N,Board_0-/REF*%
X18500000Y-19587500D03*
%TD*%
D10*
%TO.P,TP2,1,1*%
%TO.N,Board_1-GND*%
X44000000Y-28000000D03*
%TD*%
D14*
%TO.P,U1,1,REF*%
%TO.N,Board_1-/REF*%
X45670000Y-22525000D03*
%TO.P,U1,2,GND*%
%TO.N,Board_1-GND*%
X45670000Y-23175000D03*
%TO.P,U1,3,Vs*%
%TO.N,Board_1-+3.3V*%
X45670000Y-23825000D03*
%TO.P,U1,4,+IN*%
%TO.N,Board_1-/IN+*%
X48330000Y-23825000D03*
%TO.P,U1,5,-IN*%
%TO.N,Board_1-/IN-*%
X48330000Y-23175000D03*
%TO.P,U1,6,OUT*%
%TO.N,Board_1-/OUT*%
X48330000Y-22525000D03*
%TD*%
%TO.P,U1,1,REF*%
%TO.N,Board_0-/REF*%
X24670000Y-22525000D03*
%TO.P,U1,2,GND*%
%TO.N,Board_0-GND*%
X24670000Y-23175000D03*
%TO.P,U1,3,Vs*%
%TO.N,Board_0-+3.3V*%
X24670000Y-23825000D03*
%TO.P,U1,4,+IN*%
%TO.N,Board_0-/IN+*%
X27330000Y-23825000D03*
%TO.P,U1,5,-IN*%
%TO.N,Board_0-/IN-*%
X27330000Y-23175000D03*
%TO.P,U1,6,OUT*%
%TO.N,Board_0-/OUT*%
X27330000Y-22525000D03*
%TD*%
D16*
%TO.P,R1,1*%
%TO.N,Board_3-+3.3V*%
X39500000Y-40412500D03*
%TO.P,R1,2*%
%TO.N,Board_3-/REF*%
X39500000Y-38587500D03*
%TD*%
D15*
%TO.P,C2,1*%
%TO.N,Board_0-+3.3V*%
X22500000Y-25362500D03*
%TO.P,C2,2*%
%TO.N,Board_0-GND*%
X22500000Y-23637500D03*
%TD*%
D10*
%TO.P,TP3,1,1*%
%TO.N,Board_2-/IN+*%
X30000000Y-47000000D03*
%TD*%
%TO.P,TP4,1,1*%
%TO.N,Board_2-/IN-*%
X30000000Y-38000000D03*
%TD*%
%TO.P,TP1,1,1*%
%TO.N,Board_2-+3.3V*%
X19000000Y-47000000D03*
%TD*%
%TO.P,TP3,1,1*%
%TO.N,Board_0-/IN+*%
X30000000Y-28000000D03*
%TD*%
D12*
%TO.P,R2,1*%
%TO.N,Board_2-/REF*%
X20500000Y-38587500D03*
%TO.P,R2,2*%
%TO.N,Board_2-GND*%
X20500000Y-40412500D03*
%TD*%
D16*
%TO.P,R1,1*%
%TO.N,Board_2-+3.3V*%
X18500000Y-40412500D03*
%TO.P,R1,2*%
%TO.N,Board_2-/REF*%
X18500000Y-38587500D03*
%TD*%
D10*
%TO.P,TP2,1,1*%
%TO.N,Board_2-GND*%
X23000000Y-47000000D03*
%TD*%
%TO.P,TP5,1,1*%
%TO.N,Board_0-/OUT*%
X26000000Y-19000000D03*
%TD*%
D13*
%TO.P,C1,1*%
%TO.N,Board_1-/REF*%
X43500000Y-19637500D03*
%TO.P,C1,2*%
%TO.N,Board_1-GND*%
X43500000Y-21362500D03*
%TD*%
D17*
%TO.N,Board_0-+3.3V*%
X19000000Y-23000000D02*
X19000000Y-26000000D01*
X19637500Y-25362500D02*
X19000000Y-26000000D01*
D18*
X24670000Y-23825000D02*
X24670000Y-24830000D01*
D17*
X18500000Y-21412500D02*
X18500000Y-22500000D01*
X18500000Y-22500000D02*
X19000000Y-23000000D01*
D18*
X22500000Y-25362500D02*
X24137500Y-25362500D01*
D17*
X19000000Y-26000000D02*
X19000000Y-28000000D01*
D18*
X24670000Y-24830000D02*
X24137500Y-25362500D01*
D17*
X22500000Y-25362500D02*
X19637500Y-25362500D01*
D18*
%TO.N,Board_0-/IN+*%
X28325000Y-23825000D02*
X29037500Y-24537500D01*
X27330000Y-23825000D02*
X28325000Y-23825000D01*
D19*
X30000000Y-24537500D02*
X30000000Y-28000000D01*
D18*
X29037500Y-24537500D02*
X30000000Y-24537500D01*
%TO.N,Board_0-/IN-*%
X28325000Y-23175000D02*
X29037500Y-22462500D01*
D19*
X30000000Y-22462500D02*
X30000000Y-19000000D01*
D18*
X29037500Y-22462500D02*
X30000000Y-22462500D01*
X27330000Y-23175000D02*
X28325000Y-23175000D01*
%TO.N,Board_0-/OUT*%
X27330000Y-21830000D02*
X26000000Y-20500000D01*
X26450000Y-19450000D02*
X26000000Y-19000000D01*
X26000000Y-20500000D02*
X26000000Y-19000000D01*
X27330000Y-22525000D02*
X27330000Y-21830000D01*
%TO.N,Board_0-/REF*%
X18500000Y-19587500D02*
X20500000Y-19587500D01*
X24670000Y-22525000D02*
X24670000Y-20670000D01*
X24670000Y-20670000D02*
X23637500Y-19637500D01*
X22500000Y-19637500D02*
X23637500Y-19637500D01*
X20500000Y-19587500D02*
X22450000Y-19587500D01*
X22450000Y-19587500D02*
X22500000Y-19637500D01*
%TO.N,Board_0-GND*%
X23162500Y-23637500D02*
X23625000Y-23175000D01*
D17*
X22500000Y-23637500D02*
X22500000Y-21362500D01*
X20550000Y-21362500D02*
X20500000Y-21412500D01*
D18*
X26000000Y-23400000D02*
X26000000Y-28000000D01*
X22500000Y-23637500D02*
X23162500Y-23637500D01*
D17*
X20500000Y-21412500D02*
X22450000Y-21412500D01*
X22450000Y-21412500D02*
X22500000Y-21362500D01*
D18*
X23625000Y-23175000D02*
X24670000Y-23175000D01*
X24670000Y-23175000D02*
X25775000Y-23175000D01*
X23000000Y-28000000D02*
X26000000Y-28000000D01*
X25775000Y-23175000D02*
X26000000Y-23400000D01*
D17*
%TO.N,Board_1-+3.3V*%
X40000000Y-23000000D02*
X40000000Y-26000000D01*
X40637500Y-25362500D02*
X40000000Y-26000000D01*
D18*
X45670000Y-23825000D02*
X45670000Y-24830000D01*
D17*
X39500000Y-21412500D02*
X39500000Y-22500000D01*
X39500000Y-22500000D02*
X40000000Y-23000000D01*
D18*
X43500000Y-25362500D02*
X45137500Y-25362500D01*
D17*
X40000000Y-26000000D02*
X40000000Y-28000000D01*
D18*
X45670000Y-24830000D02*
X45137500Y-25362500D01*
D17*
X43500000Y-25362500D02*
X40637500Y-25362500D01*
D18*
%TO.N,Board_1-/IN+*%
X49325000Y-23825000D02*
X50037500Y-24537500D01*
X48330000Y-23825000D02*
X49325000Y-23825000D01*
D19*
X51000000Y-24537500D02*
X51000000Y-28000000D01*
D18*
X50037500Y-24537500D02*
X51000000Y-24537500D01*
%TO.N,Board_1-/IN-*%
X49325000Y-23175000D02*
X50037500Y-22462500D01*
D19*
X51000000Y-22462500D02*
X51000000Y-19000000D01*
D18*
X50037500Y-22462500D02*
X51000000Y-22462500D01*
X48330000Y-23175000D02*
X49325000Y-23175000D01*
%TO.N,Board_1-/OUT*%
X48330000Y-21830000D02*
X47000000Y-20500000D01*
X47450000Y-19450000D02*
X47000000Y-19000000D01*
X47000000Y-20500000D02*
X47000000Y-19000000D01*
X48330000Y-22525000D02*
X48330000Y-21830000D01*
%TO.N,Board_1-/REF*%
X39500000Y-19587500D02*
X41500000Y-19587500D01*
X45670000Y-22525000D02*
X45670000Y-20670000D01*
X45670000Y-20670000D02*
X44637500Y-19637500D01*
X43500000Y-19637500D02*
X44637500Y-19637500D01*
X41500000Y-19587500D02*
X43450000Y-19587500D01*
X43450000Y-19587500D02*
X43500000Y-19637500D01*
%TO.N,Board_1-GND*%
X44162500Y-23637500D02*
X44625000Y-23175000D01*
D17*
X43500000Y-23637500D02*
X43500000Y-21362500D01*
X41550000Y-21362500D02*
X41500000Y-21412500D01*
D18*
X47000000Y-23400000D02*
X47000000Y-28000000D01*
X43500000Y-23637500D02*
X44162500Y-23637500D01*
D17*
X41500000Y-21412500D02*
X43450000Y-21412500D01*
X43450000Y-21412500D02*
X43500000Y-21362500D01*
D18*
X44625000Y-23175000D02*
X45670000Y-23175000D01*
X45670000Y-23175000D02*
X46775000Y-23175000D01*
X44000000Y-28000000D02*
X47000000Y-28000000D01*
X46775000Y-23175000D02*
X47000000Y-23400000D01*
D17*
%TO.N,Board_2-+3.3V*%
X19000000Y-42000000D02*
X19000000Y-45000000D01*
X19637500Y-44362500D02*
X19000000Y-45000000D01*
D18*
X24670000Y-42825000D02*
X24670000Y-43830000D01*
D17*
X18500000Y-40412500D02*
X18500000Y-41500000D01*
X18500000Y-41500000D02*
X19000000Y-42000000D01*
D18*
X22500000Y-44362500D02*
X24137500Y-44362500D01*
D17*
X19000000Y-45000000D02*
X19000000Y-47000000D01*
D18*
X24670000Y-43830000D02*
X24137500Y-44362500D01*
D17*
X22500000Y-44362500D02*
X19637500Y-44362500D01*
D18*
%TO.N,Board_2-/IN+*%
X28325000Y-42825000D02*
X29037500Y-43537500D01*
X27330000Y-42825000D02*
X28325000Y-42825000D01*
D19*
X30000000Y-43537500D02*
X30000000Y-47000000D01*
D18*
X29037500Y-43537500D02*
X30000000Y-43537500D01*
%TO.N,Board_2-/IN-*%
X28325000Y-42175000D02*
X29037500Y-41462500D01*
D19*
X30000000Y-41462500D02*
X30000000Y-38000000D01*
D18*
X29037500Y-41462500D02*
X30000000Y-41462500D01*
X27330000Y-42175000D02*
X28325000Y-42175000D01*
%TO.N,Board_2-/OUT*%
X27330000Y-40830000D02*
X26000000Y-39500000D01*
X26450000Y-38450000D02*
X26000000Y-38000000D01*
X26000000Y-39500000D02*
X26000000Y-38000000D01*
X27330000Y-41525000D02*
X27330000Y-40830000D01*
%TO.N,Board_2-/REF*%
X18500000Y-38587500D02*
X20500000Y-38587500D01*
X24670000Y-41525000D02*
X24670000Y-39670000D01*
X24670000Y-39670000D02*
X23637500Y-38637500D01*
X22500000Y-38637500D02*
X23637500Y-38637500D01*
X20500000Y-38587500D02*
X22450000Y-38587500D01*
X22450000Y-38587500D02*
X22500000Y-38637500D01*
%TO.N,Board_2-GND*%
X23162500Y-42637500D02*
X23625000Y-42175000D01*
D17*
X22500000Y-42637500D02*
X22500000Y-40362500D01*
X20550000Y-40362500D02*
X20500000Y-40412500D01*
D18*
X26000000Y-42400000D02*
X26000000Y-47000000D01*
X22500000Y-42637500D02*
X23162500Y-42637500D01*
D17*
X20500000Y-40412500D02*
X22450000Y-40412500D01*
X22450000Y-40412500D02*
X22500000Y-40362500D01*
D18*
X23625000Y-42175000D02*
X24670000Y-42175000D01*
X24670000Y-42175000D02*
X25775000Y-42175000D01*
X23000000Y-47000000D02*
X26000000Y-47000000D01*
X25775000Y-42175000D02*
X26000000Y-42400000D01*
D17*
%TO.N,Board_3-+3.3V*%
X40000000Y-42000000D02*
X40000000Y-45000000D01*
X40637500Y-44362500D02*
X40000000Y-45000000D01*
D18*
X45670000Y-42825000D02*
X45670000Y-43830000D01*
D17*
X39500000Y-40412500D02*
X39500000Y-41500000D01*
X39500000Y-41500000D02*
X40000000Y-42000000D01*
D18*
X43500000Y-44362500D02*
X45137500Y-44362500D01*
D17*
X40000000Y-45000000D02*
X40000000Y-47000000D01*
D18*
X45670000Y-43830000D02*
X45137500Y-44362500D01*
D17*
X43500000Y-44362500D02*
X40637500Y-44362500D01*
D18*
%TO.N,Board_3-/IN+*%
X49325000Y-42825000D02*
X50037500Y-43537500D01*
X48330000Y-42825000D02*
X49325000Y-42825000D01*
D19*
X51000000Y-43537500D02*
X51000000Y-47000000D01*
D18*
X50037500Y-43537500D02*
X51000000Y-43537500D01*
%TO.N,Board_3-/IN-*%
X49325000Y-42175000D02*
X50037500Y-41462500D01*
D19*
X51000000Y-41462500D02*
X51000000Y-38000000D01*
D18*
X50037500Y-41462500D02*
X51000000Y-41462500D01*
X48330000Y-42175000D02*
X49325000Y-42175000D01*
%TO.N,Board_3-/OUT*%
X48330000Y-40830000D02*
X47000000Y-39500000D01*
X47450000Y-38450000D02*
X47000000Y-38000000D01*
X47000000Y-39500000D02*
X47000000Y-38000000D01*
X48330000Y-41525000D02*
X48330000Y-40830000D01*
%TO.N,Board_3-/REF*%
X39500000Y-38587500D02*
X41500000Y-38587500D01*
X45670000Y-41525000D02*
X45670000Y-39670000D01*
X45670000Y-39670000D02*
X44637500Y-38637500D01*
X43500000Y-38637500D02*
X44637500Y-38637500D01*
X41500000Y-38587500D02*
X43450000Y-38587500D01*
X43450000Y-38587500D02*
X43500000Y-38637500D01*
%TO.N,Board_3-GND*%
X44162500Y-42637500D02*
X44625000Y-42175000D01*
D17*
X43500000Y-42637500D02*
X43500000Y-40362500D01*
X41550000Y-40362500D02*
X41500000Y-40412500D01*
D18*
X47000000Y-42400000D02*
X47000000Y-47000000D01*
X43500000Y-42637500D02*
X44162500Y-42637500D01*
D17*
X41500000Y-40412500D02*
X43450000Y-40412500D01*
X43450000Y-40412500D02*
X43500000Y-40362500D01*
D18*
X44625000Y-42175000D02*
X45670000Y-42175000D01*
X45670000Y-42175000D02*
X46775000Y-42175000D01*
X44000000Y-47000000D02*
X47000000Y-47000000D01*
X46775000Y-42175000D02*
X47000000Y-42400000D01*
%TD*%
%TA.AperFunction,Conductor*%
%TO.N,Board_0-GND*%
G36*
X30970018Y-15510000D02*
G01*
X30984851Y-15512310D01*
X30984855Y-15512310D01*
X30993724Y-15513691D01*
X31010923Y-15511442D01*
X31034863Y-15510609D01*
X31292710Y-15526206D01*
X31307814Y-15528040D01*
X31379786Y-15541229D01*
X31588760Y-15579525D01*
X31603526Y-15583164D01*
X31876231Y-15668142D01*
X31890445Y-15673534D01*
X32108223Y-15771547D01*
X32150906Y-15790757D01*
X32164379Y-15797828D01*
X32408813Y-15945595D01*
X32421334Y-15954238D01*
X32646171Y-16130385D01*
X32657560Y-16140475D01*
X32859525Y-16342440D01*
X32869615Y-16353829D01*
X33045762Y-16578666D01*
X33054405Y-16591187D01*
X33202172Y-16835621D01*
X33209242Y-16849092D01*
X33326466Y-17109555D01*
X33331859Y-17123773D01*
X33416836Y-17396473D01*
X33420477Y-17411246D01*
X33471960Y-17692186D01*
X33473794Y-17707290D01*
X33488953Y-17957904D01*
X33487692Y-17984716D01*
X33487690Y-17984852D01*
X33486309Y-17993724D01*
X33487473Y-18002626D01*
X33487473Y-18002628D01*
X33490436Y-18025283D01*
X33491500Y-18041621D01*
X33491500Y-28950633D01*
X33490000Y-28970018D01*
X33487690Y-28984851D01*
X33487690Y-28984855D01*
X33486309Y-28993724D01*
X33488558Y-29010919D01*
X33489391Y-29034863D01*
X33473794Y-29292710D01*
X33471960Y-29307814D01*
X33420477Y-29588754D01*
X33416836Y-29603527D01*
X33331859Y-29876227D01*
X33326466Y-29890445D01*
X33209243Y-30150906D01*
X33202172Y-30164379D01*
X33054405Y-30408813D01*
X33045762Y-30421334D01*
X32869615Y-30646171D01*
X32859525Y-30657560D01*
X32657560Y-30859525D01*
X32646171Y-30869615D01*
X32421334Y-31045762D01*
X32408813Y-31054405D01*
X32164379Y-31202172D01*
X32150908Y-31209242D01*
X31890445Y-31326466D01*
X31876231Y-31331858D01*
X31603527Y-31416836D01*
X31588760Y-31420475D01*
X31379786Y-31458771D01*
X31307814Y-31471960D01*
X31292710Y-31473794D01*
X31042096Y-31488953D01*
X31015284Y-31487692D01*
X31015148Y-31487690D01*
X31006276Y-31486309D01*
X30997374Y-31487473D01*
X30997372Y-31487473D01*
X30982707Y-31489391D01*
X30974714Y-31490436D01*
X30958379Y-31491500D01*
X18049367Y-31491500D01*
X18029982Y-31490000D01*
X18015149Y-31487690D01*
X18015145Y-31487690D01*
X18006276Y-31486309D01*
X17989077Y-31488558D01*
X17965137Y-31489391D01*
X17707290Y-31473794D01*
X17692186Y-31471960D01*
X17620214Y-31458771D01*
X17411240Y-31420475D01*
X17396473Y-31416836D01*
X17123769Y-31331858D01*
X17109555Y-31326466D01*
X16849092Y-31209242D01*
X16835621Y-31202172D01*
X16591187Y-31054405D01*
X16578666Y-31045762D01*
X16353829Y-30869615D01*
X16342440Y-30859525D01*
X16140475Y-30657560D01*
X16130385Y-30646171D01*
X15954238Y-30421334D01*
X15945595Y-30408813D01*
X15797828Y-30164379D01*
X15790757Y-30150906D01*
X15673534Y-29890445D01*
X15668141Y-29876227D01*
X15583164Y-29603527D01*
X15579523Y-29588754D01*
X15528040Y-29307814D01*
X15526206Y-29292710D01*
X15511269Y-29045768D01*
X15512520Y-29022216D01*
X15512334Y-29022199D01*
X15512769Y-29017350D01*
X15513576Y-29012552D01*
X15513729Y-29000000D01*
X15509773Y-28972376D01*
X15508500Y-28954514D01*
X15508500Y-21712072D01*
X17516500Y-21712072D01*
X17516837Y-21715318D01*
X17516837Y-21715322D01*
X17526395Y-21807435D01*
X17527293Y-21816093D01*
X17529474Y-21822629D01*
X17529474Y-21822631D01*
X17535483Y-21840641D01*
X17582346Y-21981107D01*
X17673884Y-22129031D01*
X17679066Y-22134204D01*
X17704518Y-22159612D01*
X17738597Y-22221895D01*
X17741500Y-22248785D01*
X17741500Y-22432930D01*
X17740067Y-22451880D01*
X17736801Y-22473349D01*
X17737394Y-22480641D01*
X17737394Y-22480644D01*
X17741085Y-22526018D01*
X17741500Y-22536233D01*
X17741500Y-22544293D01*
X17741925Y-22547937D01*
X17744789Y-22572507D01*
X17745222Y-22576882D01*
X17751140Y-22649637D01*
X17753396Y-22656601D01*
X17754587Y-22662560D01*
X17755971Y-22668415D01*
X17756818Y-22675681D01*
X17781735Y-22744327D01*
X17783152Y-22748455D01*
X17805649Y-22817899D01*
X17809445Y-22824154D01*
X17811951Y-22829628D01*
X17814670Y-22835058D01*
X17817167Y-22841937D01*
X17821180Y-22848057D01*
X17821180Y-22848058D01*
X17857186Y-22902976D01*
X17859523Y-22906680D01*
X17897405Y-22969107D01*
X17901121Y-22973315D01*
X17901122Y-22973316D01*
X17904803Y-22977484D01*
X17904776Y-22977508D01*
X17907429Y-22980500D01*
X17910132Y-22983733D01*
X17914144Y-22989852D01*
X17929988Y-23004861D01*
X17970383Y-23043128D01*
X17972825Y-23045506D01*
X18204595Y-23277276D01*
X18238621Y-23339588D01*
X18241500Y-23366371D01*
X18241500Y-25912053D01*
X18241001Y-25923251D01*
X18240849Y-25924956D01*
X18239360Y-25932115D01*
X18241363Y-26006170D01*
X18241454Y-26009521D01*
X18241500Y-26012928D01*
X18241500Y-26515500D01*
X18221498Y-26583621D01*
X18167842Y-26630114D01*
X18115500Y-26641500D01*
X18101866Y-26641500D01*
X18039684Y-26648255D01*
X17903295Y-26699385D01*
X17786739Y-26786739D01*
X17699385Y-26903295D01*
X17648255Y-27039684D01*
X17641500Y-27101866D01*
X17641500Y-28898134D01*
X17648255Y-28960316D01*
X17699385Y-29096705D01*
X17786739Y-29213261D01*
X17903295Y-29300615D01*
X18039684Y-29351745D01*
X18101866Y-29358500D01*
X19898134Y-29358500D01*
X19906134Y-29357631D01*
X19960316Y-29351745D01*
X19960353Y-29352088D01*
X19978164Y-29350000D01*
X22024019Y-29350000D01*
X22039729Y-29351842D01*
X22039793Y-29351252D01*
X22098514Y-29357631D01*
X22105328Y-29358000D01*
X22727885Y-29358000D01*
X22743124Y-29353525D01*
X22744329Y-29352135D01*
X22746000Y-29344452D01*
X22746000Y-29339884D01*
X23254000Y-29339884D01*
X23258475Y-29355123D01*
X23259865Y-29356328D01*
X23267548Y-29357999D01*
X23894669Y-29357999D01*
X23901490Y-29357629D01*
X23952352Y-29352105D01*
X23967604Y-29348479D01*
X24088054Y-29303324D01*
X24103649Y-29294786D01*
X24205724Y-29218285D01*
X24218285Y-29205724D01*
X24294786Y-29103649D01*
X24303324Y-29088054D01*
X24348478Y-28967606D01*
X24352105Y-28952351D01*
X24357631Y-28901486D01*
X24358000Y-28894672D01*
X24358000Y-28272115D01*
X24353525Y-28256876D01*
X24352135Y-28255671D01*
X24344452Y-28254000D01*
X23272115Y-28254000D01*
X23256876Y-28258475D01*
X23255671Y-28259865D01*
X23254000Y-28267548D01*
X23254000Y-29339884D01*
X22746000Y-29339884D01*
X22746000Y-27727885D01*
X23254000Y-27727885D01*
X23258475Y-27743124D01*
X23259865Y-27744329D01*
X23267548Y-27746000D01*
X24339884Y-27746000D01*
X24355123Y-27741525D01*
X24356328Y-27740135D01*
X24357999Y-27732452D01*
X24357999Y-27105331D01*
X24357629Y-27098510D01*
X24352105Y-27047648D01*
X24348479Y-27032396D01*
X24303324Y-26911946D01*
X24294786Y-26896351D01*
X24218285Y-26794276D01*
X24205724Y-26781715D01*
X24103649Y-26705214D01*
X24088054Y-26696676D01*
X23967606Y-26651522D01*
X23952351Y-26647895D01*
X23901486Y-26642369D01*
X23894672Y-26642000D01*
X23272115Y-26642000D01*
X23256876Y-26646475D01*
X23255671Y-26647865D01*
X23254000Y-26655548D01*
X23254000Y-27727885D01*
X22746000Y-27727885D01*
X22746000Y-26660116D01*
X22741525Y-26644876D01*
X22722653Y-26628523D01*
X22684269Y-26568797D01*
X22684269Y-26497801D01*
X22722653Y-26438075D01*
X22792161Y-26407972D01*
X22884235Y-26398419D01*
X22884239Y-26398418D01*
X22891093Y-26397707D01*
X22897629Y-26395526D01*
X22897631Y-26395526D01*
X23049159Y-26344972D01*
X23056107Y-26342654D01*
X23204031Y-26251116D01*
X23326929Y-26128003D01*
X23330768Y-26121775D01*
X23333033Y-26118907D01*
X23390950Y-26077845D01*
X23431914Y-26071000D01*
X24108588Y-26071000D01*
X24117158Y-26071292D01*
X24167276Y-26074709D01*
X24167280Y-26074709D01*
X24174852Y-26075225D01*
X24182329Y-26073920D01*
X24182330Y-26073920D01*
X24208808Y-26069299D01*
X24237803Y-26064238D01*
X24244321Y-26063277D01*
X24307742Y-26055602D01*
X24314843Y-26052919D01*
X24317452Y-26052278D01*
X24333762Y-26047815D01*
X24336298Y-26047050D01*
X24343784Y-26045743D01*
X24402300Y-26020056D01*
X24408404Y-26017565D01*
X24425194Y-26011221D01*
X24468156Y-25994987D01*
X24474419Y-25990683D01*
X24476785Y-25989446D01*
X24491597Y-25981201D01*
X24493851Y-25979868D01*
X24500805Y-25976815D01*
X24551502Y-25937913D01*
X24556832Y-25934041D01*
X24603220Y-25902161D01*
X24603225Y-25902156D01*
X24609481Y-25897857D01*
X24650936Y-25851329D01*
X24655916Y-25846054D01*
X25150520Y-25351450D01*
X25156785Y-25345596D01*
X25194660Y-25312555D01*
X25200385Y-25307561D01*
X25237114Y-25255300D01*
X25241046Y-25250005D01*
X25259640Y-25226292D01*
X25280477Y-25199718D01*
X25283602Y-25192796D01*
X25284964Y-25190548D01*
X25293368Y-25175815D01*
X25294622Y-25173476D01*
X25298990Y-25167261D01*
X25301749Y-25160185D01*
X25301751Y-25160181D01*
X25322200Y-25107731D01*
X25324749Y-25101666D01*
X25351045Y-25043427D01*
X25352429Y-25035962D01*
X25353226Y-25033418D01*
X25357859Y-25017152D01*
X25358521Y-25014572D01*
X25361282Y-25007491D01*
X25369622Y-24944143D01*
X25370653Y-24937629D01*
X25376961Y-24903598D01*
X25382296Y-24874813D01*
X25378709Y-24812602D01*
X25378500Y-24805349D01*
X25378500Y-24656291D01*
X25398502Y-24588170D01*
X25452158Y-24541677D01*
X25490892Y-24531028D01*
X25503086Y-24529703D01*
X25530316Y-24526745D01*
X25666705Y-24475615D01*
X25783261Y-24388261D01*
X25870615Y-24271705D01*
X25882018Y-24241288D01*
X25924660Y-24184524D01*
X25991222Y-24159824D01*
X26060570Y-24175032D01*
X26110688Y-24225318D01*
X26117982Y-24241288D01*
X26129385Y-24271705D01*
X26216739Y-24388261D01*
X26333295Y-24475615D01*
X26469684Y-24526745D01*
X26531866Y-24533500D01*
X27979339Y-24533500D01*
X28047460Y-24553502D01*
X28068435Y-24570405D01*
X28516065Y-25018036D01*
X28521918Y-25024301D01*
X28559939Y-25067885D01*
X28612229Y-25104636D01*
X28617471Y-25108528D01*
X28667782Y-25147976D01*
X28674701Y-25151100D01*
X28676993Y-25152488D01*
X28691665Y-25160857D01*
X28694025Y-25162122D01*
X28700239Y-25166490D01*
X28707318Y-25169250D01*
X28707320Y-25169251D01*
X28759775Y-25189702D01*
X28765844Y-25192253D01*
X28824073Y-25218545D01*
X28831546Y-25219930D01*
X28834112Y-25220734D01*
X28853623Y-25226292D01*
X28860009Y-25228782D01*
X28859093Y-25231130D01*
X28909683Y-25261238D01*
X28924493Y-25280670D01*
X28951522Y-25324348D01*
X28956704Y-25329521D01*
X28961249Y-25335255D01*
X28959576Y-25336581D01*
X28988598Y-25389625D01*
X28991500Y-25416511D01*
X28991500Y-26578991D01*
X28971498Y-26647112D01*
X28917842Y-26693605D01*
X28912306Y-26695903D01*
X28911704Y-26696232D01*
X28903295Y-26699385D01*
X28786739Y-26786739D01*
X28699385Y-26903295D01*
X28648255Y-27039684D01*
X28641500Y-27101866D01*
X28641500Y-28898134D01*
X28648255Y-28960316D01*
X28699385Y-29096705D01*
X28786739Y-29213261D01*
X28903295Y-29300615D01*
X29039684Y-29351745D01*
X29101866Y-29358500D01*
X30898134Y-29358500D01*
X30960316Y-29351745D01*
X31096705Y-29300615D01*
X31213261Y-29213261D01*
X31300615Y-29096705D01*
X31351745Y-28960316D01*
X31358500Y-28898134D01*
X31358500Y-27101866D01*
X31351745Y-27039684D01*
X31300615Y-26903295D01*
X31213261Y-26786739D01*
X31096705Y-26699385D01*
X31088296Y-26696233D01*
X31080425Y-26691923D01*
X31081336Y-26690259D01*
X31033510Y-26654337D01*
X31008807Y-26587776D01*
X31008500Y-26578991D01*
X31008500Y-25416306D01*
X31028502Y-25348185D01*
X31039683Y-25334298D01*
X31039596Y-25334229D01*
X31044134Y-25328483D01*
X31049305Y-25323303D01*
X31059009Y-25307561D01*
X31138275Y-25178968D01*
X31138276Y-25178966D01*
X31142115Y-25172738D01*
X31197797Y-25004861D01*
X31208500Y-24900400D01*
X31208500Y-24099600D01*
X31197526Y-23993834D01*
X31141550Y-23826054D01*
X31048478Y-23675652D01*
X30961891Y-23589216D01*
X30927812Y-23526934D01*
X30932815Y-23456114D01*
X30961736Y-23411025D01*
X31044134Y-23328483D01*
X31049305Y-23323303D01*
X31142115Y-23172738D01*
X31184723Y-23044279D01*
X31195632Y-23011389D01*
X31195632Y-23011387D01*
X31197797Y-23004861D01*
X31200236Y-22981062D01*
X31208172Y-22903598D01*
X31208500Y-22900400D01*
X31208500Y-22099600D01*
X31207162Y-22086703D01*
X31198238Y-22000692D01*
X31198237Y-22000688D01*
X31197526Y-21993834D01*
X31159472Y-21879771D01*
X31150476Y-21852807D01*
X31141550Y-21826054D01*
X31048478Y-21675652D01*
X31043296Y-21670479D01*
X31038751Y-21664745D01*
X31040424Y-21663419D01*
X31011402Y-21610375D01*
X31008500Y-21583489D01*
X31008500Y-20421009D01*
X31028502Y-20352888D01*
X31082158Y-20306395D01*
X31087694Y-20304097D01*
X31088297Y-20303767D01*
X31096705Y-20300615D01*
X31213261Y-20213261D01*
X31300615Y-20096705D01*
X31351745Y-19960316D01*
X31358500Y-19898134D01*
X31358500Y-18101866D01*
X31351745Y-18039684D01*
X31300615Y-17903295D01*
X31213261Y-17786739D01*
X31096705Y-17699385D01*
X30960316Y-17648255D01*
X30898134Y-17641500D01*
X29101866Y-17641500D01*
X29039684Y-17648255D01*
X28903295Y-17699385D01*
X28786739Y-17786739D01*
X28699385Y-17903295D01*
X28648255Y-18039684D01*
X28641500Y-18101866D01*
X28641500Y-19898134D01*
X28648255Y-19960316D01*
X28699385Y-20096705D01*
X28786739Y-20213261D01*
X28903295Y-20300615D01*
X28911704Y-20303767D01*
X28919575Y-20308077D01*
X28918664Y-20309741D01*
X28966490Y-20345663D01*
X28991193Y-20412224D01*
X28991500Y-20421009D01*
X28991500Y-21583694D01*
X28971498Y-21651815D01*
X28960317Y-21665702D01*
X28960404Y-21665771D01*
X28955866Y-21671517D01*
X28950695Y-21676697D01*
X28928890Y-21712072D01*
X28924078Y-21719878D01*
X28871306Y-21767371D01*
X28861441Y-21771596D01*
X28860931Y-21771789D01*
X28841278Y-21777173D01*
X28838703Y-21777950D01*
X28831216Y-21779257D01*
X28824259Y-21782311D01*
X28772705Y-21804942D01*
X28766601Y-21807433D01*
X28706844Y-21830013D01*
X28700581Y-21834317D01*
X28698215Y-21835554D01*
X28683403Y-21843799D01*
X28681149Y-21845132D01*
X28674195Y-21848185D01*
X28623498Y-21887087D01*
X28618168Y-21890959D01*
X28571780Y-21922839D01*
X28571775Y-21922844D01*
X28565519Y-21927143D01*
X28563813Y-21929058D01*
X28501429Y-21958196D01*
X28431071Y-21948693D01*
X28406866Y-21934462D01*
X28333892Y-21879771D01*
X28333890Y-21879770D01*
X28326705Y-21874385D01*
X28190316Y-21823255D01*
X28140383Y-21817831D01*
X28074822Y-21790590D01*
X28034395Y-21732227D01*
X28028904Y-21707705D01*
X28025906Y-21682928D01*
X28023102Y-21659758D01*
X28020419Y-21652657D01*
X28019778Y-21650048D01*
X28015315Y-21633738D01*
X28014550Y-21631202D01*
X28013243Y-21623716D01*
X27987556Y-21565200D01*
X27985065Y-21559096D01*
X27965173Y-21506452D01*
X27965172Y-21506451D01*
X27962487Y-21499344D01*
X27958183Y-21493081D01*
X27956946Y-21490715D01*
X27948701Y-21475903D01*
X27947368Y-21473649D01*
X27944315Y-21466695D01*
X27905413Y-21415998D01*
X27901541Y-21410668D01*
X27869661Y-21364280D01*
X27869656Y-21364275D01*
X27865357Y-21358019D01*
X27818829Y-21316564D01*
X27813554Y-21311584D01*
X27021162Y-20519192D01*
X26987136Y-20456880D01*
X26992201Y-20386065D01*
X27034748Y-20329229D01*
X27066027Y-20312116D01*
X27081287Y-20306395D01*
X27088298Y-20303767D01*
X27088300Y-20303766D01*
X27096705Y-20300615D01*
X27213261Y-20213261D01*
X27300615Y-20096705D01*
X27351745Y-19960316D01*
X27358500Y-19898134D01*
X27358500Y-18101866D01*
X27351745Y-18039684D01*
X27300615Y-17903295D01*
X27213261Y-17786739D01*
X27096705Y-17699385D01*
X26960316Y-17648255D01*
X26898134Y-17641500D01*
X25101866Y-17641500D01*
X25039684Y-17648255D01*
X24903295Y-17699385D01*
X24786739Y-17786739D01*
X24699385Y-17903295D01*
X24648255Y-18039684D01*
X24641500Y-18101866D01*
X24641500Y-19335340D01*
X24621498Y-19403461D01*
X24567842Y-19449954D01*
X24497568Y-19460058D01*
X24432988Y-19430564D01*
X24426405Y-19424435D01*
X24158942Y-19156972D01*
X24153088Y-19150706D01*
X24120056Y-19112840D01*
X24120053Y-19112837D01*
X24115061Y-19107115D01*
X24062780Y-19070371D01*
X24057486Y-19066439D01*
X24013193Y-19031709D01*
X24007218Y-19027024D01*
X24000302Y-19023901D01*
X23998016Y-19022517D01*
X23983335Y-19014143D01*
X23980975Y-19012878D01*
X23974761Y-19008510D01*
X23967682Y-19005750D01*
X23967680Y-19005749D01*
X23915225Y-18985298D01*
X23909156Y-18982747D01*
X23850927Y-18956455D01*
X23843460Y-18955071D01*
X23840905Y-18954270D01*
X23824652Y-18949641D01*
X23822072Y-18948978D01*
X23814991Y-18946218D01*
X23807460Y-18945227D01*
X23807458Y-18945226D01*
X23777839Y-18941327D01*
X23751639Y-18937878D01*
X23745141Y-18936848D01*
X23682314Y-18925204D01*
X23674734Y-18925641D01*
X23674733Y-18925641D01*
X23620108Y-18928791D01*
X23612854Y-18929000D01*
X23431940Y-18929000D01*
X23363819Y-18908998D01*
X23333194Y-18881264D01*
X23329968Y-18877194D01*
X23326116Y-18870969D01*
X23297270Y-18842173D01*
X23208184Y-18753242D01*
X23208179Y-18753238D01*
X23203003Y-18748071D01*
X23054920Y-18656791D01*
X22889809Y-18602026D01*
X22882973Y-18601326D01*
X22882970Y-18601325D01*
X22831474Y-18596049D01*
X22787072Y-18591500D01*
X22212928Y-18591500D01*
X22209682Y-18591837D01*
X22209678Y-18591837D01*
X22115765Y-18601581D01*
X22115761Y-18601582D01*
X22108907Y-18602293D01*
X22102371Y-18604474D01*
X22102369Y-18604474D01*
X21969605Y-18648768D01*
X21943893Y-18657346D01*
X21795969Y-18748884D01*
X21790796Y-18754066D01*
X21790791Y-18754070D01*
X21702998Y-18842017D01*
X21640716Y-18876097D01*
X21613825Y-18879000D01*
X21386288Y-18879000D01*
X21318167Y-18858998D01*
X21297271Y-18842173D01*
X21208188Y-18753246D01*
X21208183Y-18753242D01*
X21203003Y-18748071D01*
X21054920Y-18656791D01*
X20889809Y-18602026D01*
X20882973Y-18601326D01*
X20882970Y-18601325D01*
X20831474Y-18596049D01*
X20787072Y-18591500D01*
X20212928Y-18591500D01*
X20209682Y-18591837D01*
X20209678Y-18591837D01*
X20115765Y-18601581D01*
X20115761Y-18601582D01*
X20108907Y-18602293D01*
X20102371Y-18604474D01*
X20102369Y-18604474D01*
X19969605Y-18648768D01*
X19943893Y-18657346D01*
X19795969Y-18748884D01*
X19790796Y-18754066D01*
X19790791Y-18754070D01*
X19702998Y-18842017D01*
X19640716Y-18876097D01*
X19613825Y-18879000D01*
X19386288Y-18879000D01*
X19318167Y-18858998D01*
X19297271Y-18842173D01*
X19208188Y-18753246D01*
X19208183Y-18753242D01*
X19203003Y-18748071D01*
X19054920Y-18656791D01*
X18889809Y-18602026D01*
X18882973Y-18601326D01*
X18882970Y-18601325D01*
X18831474Y-18596049D01*
X18787072Y-18591500D01*
X18212928Y-18591500D01*
X18209682Y-18591837D01*
X18209678Y-18591837D01*
X18115765Y-18601581D01*
X18115761Y-18601582D01*
X18108907Y-18602293D01*
X18102371Y-18604474D01*
X18102369Y-18604474D01*
X17969605Y-18648768D01*
X17943893Y-18657346D01*
X17795969Y-18748884D01*
X17790796Y-18754066D01*
X17678242Y-18866816D01*
X17678238Y-18866821D01*
X17673071Y-18871997D01*
X17669231Y-18878227D01*
X17669230Y-18878228D01*
X17619083Y-18959582D01*
X17581791Y-19020080D01*
X17527026Y-19185191D01*
X17516500Y-19287928D01*
X17516500Y-19887072D01*
X17516837Y-19890318D01*
X17516837Y-19890322D01*
X17524100Y-19960316D01*
X17527293Y-19991093D01*
X17582346Y-20156107D01*
X17673884Y-20304031D01*
X17679066Y-20309204D01*
X17780786Y-20410747D01*
X17814865Y-20473030D01*
X17809862Y-20543850D01*
X17780941Y-20588937D01*
X17678246Y-20691812D01*
X17678242Y-20691817D01*
X17673071Y-20696997D01*
X17581791Y-20845080D01*
X17527026Y-21010191D01*
X17516500Y-21112928D01*
X17516500Y-21712072D01*
X15508500Y-21712072D01*
X15508500Y-18053250D01*
X15510246Y-18032345D01*
X15512770Y-18017344D01*
X15512770Y-18017341D01*
X15513576Y-18012552D01*
X15513729Y-18000000D01*
X15513040Y-17995186D01*
X15513039Y-17995177D01*
X15511869Y-17987006D01*
X15510827Y-17961540D01*
X15526206Y-17707290D01*
X15528040Y-17692186D01*
X15579523Y-17411246D01*
X15583164Y-17396473D01*
X15668141Y-17123773D01*
X15673534Y-17109555D01*
X15790758Y-16849092D01*
X15797828Y-16835621D01*
X15945595Y-16591187D01*
X15954238Y-16578666D01*
X16130385Y-16353829D01*
X16140475Y-16342440D01*
X16342440Y-16140475D01*
X16353829Y-16130385D01*
X16578666Y-15954238D01*
X16591187Y-15945595D01*
X16835621Y-15797828D01*
X16849094Y-15790757D01*
X16891777Y-15771547D01*
X17109555Y-15673534D01*
X17123769Y-15668142D01*
X17396474Y-15583164D01*
X17411240Y-15579525D01*
X17620214Y-15541229D01*
X17692186Y-15528040D01*
X17707290Y-15526206D01*
X17957904Y-15511047D01*
X17984716Y-15512308D01*
X17984852Y-15512310D01*
X17993724Y-15513691D01*
X18002626Y-15512527D01*
X18002628Y-15512527D01*
X18017677Y-15510559D01*
X18025286Y-15509564D01*
X18041621Y-15508500D01*
X30950633Y-15508500D01*
X30970018Y-15510000D01*
G37*
%TD.AperFunction*%
%TD*%
%TA.AperFunction,Conductor*%
%TO.N,Board_1-GND*%
G36*
X51970018Y-15510000D02*
G01*
X51984851Y-15512310D01*
X51984855Y-15512310D01*
X51993724Y-15513691D01*
X52010923Y-15511442D01*
X52034863Y-15510609D01*
X52292710Y-15526206D01*
X52307814Y-15528040D01*
X52379786Y-15541229D01*
X52588760Y-15579525D01*
X52603526Y-15583164D01*
X52876231Y-15668142D01*
X52890445Y-15673534D01*
X53108223Y-15771547D01*
X53150906Y-15790757D01*
X53164379Y-15797828D01*
X53408813Y-15945595D01*
X53421334Y-15954238D01*
X53646171Y-16130385D01*
X53657560Y-16140475D01*
X53859525Y-16342440D01*
X53869615Y-16353829D01*
X54045762Y-16578666D01*
X54054405Y-16591187D01*
X54202172Y-16835621D01*
X54209242Y-16849092D01*
X54326466Y-17109555D01*
X54331859Y-17123773D01*
X54416836Y-17396473D01*
X54420477Y-17411246D01*
X54471960Y-17692186D01*
X54473794Y-17707290D01*
X54488953Y-17957904D01*
X54487692Y-17984716D01*
X54487690Y-17984852D01*
X54486309Y-17993724D01*
X54487473Y-18002626D01*
X54487473Y-18002628D01*
X54490436Y-18025283D01*
X54491500Y-18041621D01*
X54491500Y-28950633D01*
X54490000Y-28970018D01*
X54487690Y-28984851D01*
X54487690Y-28984855D01*
X54486309Y-28993724D01*
X54488558Y-29010919D01*
X54489391Y-29034863D01*
X54473794Y-29292710D01*
X54471960Y-29307814D01*
X54420477Y-29588754D01*
X54416836Y-29603527D01*
X54331859Y-29876227D01*
X54326466Y-29890445D01*
X54209243Y-30150906D01*
X54202172Y-30164379D01*
X54054405Y-30408813D01*
X54045762Y-30421334D01*
X53869615Y-30646171D01*
X53859525Y-30657560D01*
X53657560Y-30859525D01*
X53646171Y-30869615D01*
X53421334Y-31045762D01*
X53408813Y-31054405D01*
X53164379Y-31202172D01*
X53150908Y-31209242D01*
X52890445Y-31326466D01*
X52876231Y-31331858D01*
X52603527Y-31416836D01*
X52588760Y-31420475D01*
X52379786Y-31458771D01*
X52307814Y-31471960D01*
X52292710Y-31473794D01*
X52042096Y-31488953D01*
X52015284Y-31487692D01*
X52015148Y-31487690D01*
X52006276Y-31486309D01*
X51997374Y-31487473D01*
X51997372Y-31487473D01*
X51982707Y-31489391D01*
X51974714Y-31490436D01*
X51958379Y-31491500D01*
X39049367Y-31491500D01*
X39029982Y-31490000D01*
X39015149Y-31487690D01*
X39015145Y-31487690D01*
X39006276Y-31486309D01*
X38989077Y-31488558D01*
X38965137Y-31489391D01*
X38707290Y-31473794D01*
X38692186Y-31471960D01*
X38620214Y-31458771D01*
X38411240Y-31420475D01*
X38396473Y-31416836D01*
X38123769Y-31331858D01*
X38109555Y-31326466D01*
X37849092Y-31209242D01*
X37835621Y-31202172D01*
X37591187Y-31054405D01*
X37578666Y-31045762D01*
X37353829Y-30869615D01*
X37342440Y-30859525D01*
X37140475Y-30657560D01*
X37130385Y-30646171D01*
X36954238Y-30421334D01*
X36945595Y-30408813D01*
X36797828Y-30164379D01*
X36790757Y-30150906D01*
X36673534Y-29890445D01*
X36668141Y-29876227D01*
X36583164Y-29603527D01*
X36579523Y-29588754D01*
X36528040Y-29307814D01*
X36526206Y-29292710D01*
X36511269Y-29045768D01*
X36512520Y-29022216D01*
X36512334Y-29022199D01*
X36512769Y-29017350D01*
X36513576Y-29012552D01*
X36513729Y-29000000D01*
X36509773Y-28972376D01*
X36508500Y-28954514D01*
X36508500Y-21712072D01*
X38516500Y-21712072D01*
X38516837Y-21715318D01*
X38516837Y-21715322D01*
X38526395Y-21807435D01*
X38527293Y-21816093D01*
X38529474Y-21822629D01*
X38529474Y-21822631D01*
X38535483Y-21840641D01*
X38582346Y-21981107D01*
X38673884Y-22129031D01*
X38679066Y-22134204D01*
X38704518Y-22159612D01*
X38738597Y-22221895D01*
X38741500Y-22248785D01*
X38741500Y-22432930D01*
X38740067Y-22451880D01*
X38736801Y-22473349D01*
X38737394Y-22480641D01*
X38737394Y-22480644D01*
X38741085Y-22526018D01*
X38741500Y-22536233D01*
X38741500Y-22544293D01*
X38741925Y-22547937D01*
X38744789Y-22572507D01*
X38745222Y-22576882D01*
X38751140Y-22649637D01*
X38753396Y-22656601D01*
X38754587Y-22662560D01*
X38755971Y-22668415D01*
X38756818Y-22675681D01*
X38781735Y-22744327D01*
X38783152Y-22748455D01*
X38805649Y-22817899D01*
X38809445Y-22824154D01*
X38811951Y-22829628D01*
X38814670Y-22835058D01*
X38817167Y-22841937D01*
X38821180Y-22848057D01*
X38821180Y-22848058D01*
X38857186Y-22902976D01*
X38859523Y-22906680D01*
X38897405Y-22969107D01*
X38901121Y-22973315D01*
X38901122Y-22973316D01*
X38904803Y-22977484D01*
X38904776Y-22977508D01*
X38907429Y-22980500D01*
X38910132Y-22983733D01*
X38914144Y-22989852D01*
X38929988Y-23004861D01*
X38970383Y-23043128D01*
X38972825Y-23045506D01*
X39204595Y-23277276D01*
X39238621Y-23339588D01*
X39241500Y-23366371D01*
X39241500Y-25912053D01*
X39241001Y-25923251D01*
X39240849Y-25924956D01*
X39239360Y-25932115D01*
X39241363Y-26006170D01*
X39241454Y-26009521D01*
X39241500Y-26012928D01*
X39241500Y-26515500D01*
X39221498Y-26583621D01*
X39167842Y-26630114D01*
X39115500Y-26641500D01*
X39101866Y-26641500D01*
X39039684Y-26648255D01*
X38903295Y-26699385D01*
X38786739Y-26786739D01*
X38699385Y-26903295D01*
X38648255Y-27039684D01*
X38641500Y-27101866D01*
X38641500Y-28898134D01*
X38648255Y-28960316D01*
X38699385Y-29096705D01*
X38786739Y-29213261D01*
X38903295Y-29300615D01*
X39039684Y-29351745D01*
X39101866Y-29358500D01*
X40898134Y-29358500D01*
X40906134Y-29357631D01*
X40960316Y-29351745D01*
X40960353Y-29352088D01*
X40978164Y-29350000D01*
X43024019Y-29350000D01*
X43039729Y-29351842D01*
X43039793Y-29351252D01*
X43098514Y-29357631D01*
X43105328Y-29358000D01*
X43727885Y-29358000D01*
X43743124Y-29353525D01*
X43744329Y-29352135D01*
X43746000Y-29344452D01*
X43746000Y-29339884D01*
X44254000Y-29339884D01*
X44258475Y-29355123D01*
X44259865Y-29356328D01*
X44267548Y-29357999D01*
X44894669Y-29357999D01*
X44901490Y-29357629D01*
X44952352Y-29352105D01*
X44967604Y-29348479D01*
X45088054Y-29303324D01*
X45103649Y-29294786D01*
X45205724Y-29218285D01*
X45218285Y-29205724D01*
X45294786Y-29103649D01*
X45303324Y-29088054D01*
X45348478Y-28967606D01*
X45352105Y-28952351D01*
X45357631Y-28901486D01*
X45358000Y-28894672D01*
X45358000Y-28272115D01*
X45353525Y-28256876D01*
X45352135Y-28255671D01*
X45344452Y-28254000D01*
X44272115Y-28254000D01*
X44256876Y-28258475D01*
X44255671Y-28259865D01*
X44254000Y-28267548D01*
X44254000Y-29339884D01*
X43746000Y-29339884D01*
X43746000Y-27727885D01*
X44254000Y-27727885D01*
X44258475Y-27743124D01*
X44259865Y-27744329D01*
X44267548Y-27746000D01*
X45339884Y-27746000D01*
X45355123Y-27741525D01*
X45356328Y-27740135D01*
X45357999Y-27732452D01*
X45357999Y-27105331D01*
X45357629Y-27098510D01*
X45352105Y-27047648D01*
X45348479Y-27032396D01*
X45303324Y-26911946D01*
X45294786Y-26896351D01*
X45218285Y-26794276D01*
X45205724Y-26781715D01*
X45103649Y-26705214D01*
X45088054Y-26696676D01*
X44967606Y-26651522D01*
X44952351Y-26647895D01*
X44901486Y-26642369D01*
X44894672Y-26642000D01*
X44272115Y-26642000D01*
X44256876Y-26646475D01*
X44255671Y-26647865D01*
X44254000Y-26655548D01*
X44254000Y-27727885D01*
X43746000Y-27727885D01*
X43746000Y-26660116D01*
X43741525Y-26644876D01*
X43722653Y-26628523D01*
X43684269Y-26568797D01*
X43684269Y-26497801D01*
X43722653Y-26438075D01*
X43792161Y-26407972D01*
X43884235Y-26398419D01*
X43884239Y-26398418D01*
X43891093Y-26397707D01*
X43897629Y-26395526D01*
X43897631Y-26395526D01*
X44049159Y-26344972D01*
X44056107Y-26342654D01*
X44204031Y-26251116D01*
X44326929Y-26128003D01*
X44330768Y-26121775D01*
X44333033Y-26118907D01*
X44390950Y-26077845D01*
X44431914Y-26071000D01*
X45108588Y-26071000D01*
X45117158Y-26071292D01*
X45167276Y-26074709D01*
X45167280Y-26074709D01*
X45174852Y-26075225D01*
X45182329Y-26073920D01*
X45182330Y-26073920D01*
X45208808Y-26069299D01*
X45237803Y-26064238D01*
X45244321Y-26063277D01*
X45307742Y-26055602D01*
X45314843Y-26052919D01*
X45317452Y-26052278D01*
X45333762Y-26047815D01*
X45336298Y-26047050D01*
X45343784Y-26045743D01*
X45402300Y-26020056D01*
X45408404Y-26017565D01*
X45425194Y-26011221D01*
X45468156Y-25994987D01*
X45474419Y-25990683D01*
X45476785Y-25989446D01*
X45491597Y-25981201D01*
X45493851Y-25979868D01*
X45500805Y-25976815D01*
X45551502Y-25937913D01*
X45556832Y-25934041D01*
X45603220Y-25902161D01*
X45603225Y-25902156D01*
X45609481Y-25897857D01*
X45650936Y-25851329D01*
X45655916Y-25846054D01*
X46150520Y-25351450D01*
X46156785Y-25345596D01*
X46194660Y-25312555D01*
X46200385Y-25307561D01*
X46237114Y-25255300D01*
X46241046Y-25250005D01*
X46259640Y-25226292D01*
X46280477Y-25199718D01*
X46283602Y-25192796D01*
X46284964Y-25190548D01*
X46293368Y-25175815D01*
X46294622Y-25173476D01*
X46298990Y-25167261D01*
X46301749Y-25160185D01*
X46301751Y-25160181D01*
X46322200Y-25107731D01*
X46324749Y-25101666D01*
X46351045Y-25043427D01*
X46352429Y-25035962D01*
X46353226Y-25033418D01*
X46357859Y-25017152D01*
X46358521Y-25014572D01*
X46361282Y-25007491D01*
X46369622Y-24944143D01*
X46370653Y-24937629D01*
X46376961Y-24903598D01*
X46382296Y-24874813D01*
X46378709Y-24812602D01*
X46378500Y-24805349D01*
X46378500Y-24656291D01*
X46398502Y-24588170D01*
X46452158Y-24541677D01*
X46490892Y-24531028D01*
X46503086Y-24529703D01*
X46530316Y-24526745D01*
X46666705Y-24475615D01*
X46783261Y-24388261D01*
X46870615Y-24271705D01*
X46882018Y-24241288D01*
X46924660Y-24184524D01*
X46991222Y-24159824D01*
X47060570Y-24175032D01*
X47110688Y-24225318D01*
X47117982Y-24241288D01*
X47129385Y-24271705D01*
X47216739Y-24388261D01*
X47333295Y-24475615D01*
X47469684Y-24526745D01*
X47531866Y-24533500D01*
X48979339Y-24533500D01*
X49047460Y-24553502D01*
X49068435Y-24570405D01*
X49516065Y-25018036D01*
X49521918Y-25024301D01*
X49559939Y-25067885D01*
X49612229Y-25104636D01*
X49617471Y-25108528D01*
X49667782Y-25147976D01*
X49674701Y-25151100D01*
X49676993Y-25152488D01*
X49691665Y-25160857D01*
X49694025Y-25162122D01*
X49700239Y-25166490D01*
X49707318Y-25169250D01*
X49707320Y-25169251D01*
X49759775Y-25189702D01*
X49765844Y-25192253D01*
X49824073Y-25218545D01*
X49831546Y-25219930D01*
X49834112Y-25220734D01*
X49853623Y-25226292D01*
X49860009Y-25228782D01*
X49859093Y-25231130D01*
X49909683Y-25261238D01*
X49924493Y-25280670D01*
X49951522Y-25324348D01*
X49956704Y-25329521D01*
X49961249Y-25335255D01*
X49959576Y-25336581D01*
X49988598Y-25389625D01*
X49991500Y-25416511D01*
X49991500Y-26578991D01*
X49971498Y-26647112D01*
X49917842Y-26693605D01*
X49912306Y-26695903D01*
X49911704Y-26696232D01*
X49903295Y-26699385D01*
X49786739Y-26786739D01*
X49699385Y-26903295D01*
X49648255Y-27039684D01*
X49641500Y-27101866D01*
X49641500Y-28898134D01*
X49648255Y-28960316D01*
X49699385Y-29096705D01*
X49786739Y-29213261D01*
X49903295Y-29300615D01*
X50039684Y-29351745D01*
X50101866Y-29358500D01*
X51898134Y-29358500D01*
X51960316Y-29351745D01*
X52096705Y-29300615D01*
X52213261Y-29213261D01*
X52300615Y-29096705D01*
X52351745Y-28960316D01*
X52358500Y-28898134D01*
X52358500Y-27101866D01*
X52351745Y-27039684D01*
X52300615Y-26903295D01*
X52213261Y-26786739D01*
X52096705Y-26699385D01*
X52088296Y-26696233D01*
X52080425Y-26691923D01*
X52081336Y-26690259D01*
X52033510Y-26654337D01*
X52008807Y-26587776D01*
X52008500Y-26578991D01*
X52008500Y-25416306D01*
X52028502Y-25348185D01*
X52039683Y-25334298D01*
X52039596Y-25334229D01*
X52044134Y-25328483D01*
X52049305Y-25323303D01*
X52059009Y-25307561D01*
X52138275Y-25178968D01*
X52138276Y-25178966D01*
X52142115Y-25172738D01*
X52197797Y-25004861D01*
X52208500Y-24900400D01*
X52208500Y-24099600D01*
X52197526Y-23993834D01*
X52141550Y-23826054D01*
X52048478Y-23675652D01*
X51961891Y-23589216D01*
X51927812Y-23526934D01*
X51932815Y-23456114D01*
X51961736Y-23411025D01*
X52044134Y-23328483D01*
X52049305Y-23323303D01*
X52142115Y-23172738D01*
X52184723Y-23044279D01*
X52195632Y-23011389D01*
X52195632Y-23011387D01*
X52197797Y-23004861D01*
X52200236Y-22981062D01*
X52208172Y-22903598D01*
X52208500Y-22900400D01*
X52208500Y-22099600D01*
X52207162Y-22086703D01*
X52198238Y-22000692D01*
X52198237Y-22000688D01*
X52197526Y-21993834D01*
X52159472Y-21879771D01*
X52150476Y-21852807D01*
X52141550Y-21826054D01*
X52048478Y-21675652D01*
X52043296Y-21670479D01*
X52038751Y-21664745D01*
X52040424Y-21663419D01*
X52011402Y-21610375D01*
X52008500Y-21583489D01*
X52008500Y-20421009D01*
X52028502Y-20352888D01*
X52082158Y-20306395D01*
X52087694Y-20304097D01*
X52088297Y-20303767D01*
X52096705Y-20300615D01*
X52213261Y-20213261D01*
X52300615Y-20096705D01*
X52351745Y-19960316D01*
X52358500Y-19898134D01*
X52358500Y-18101866D01*
X52351745Y-18039684D01*
X52300615Y-17903295D01*
X52213261Y-17786739D01*
X52096705Y-17699385D01*
X51960316Y-17648255D01*
X51898134Y-17641500D01*
X50101866Y-17641500D01*
X50039684Y-17648255D01*
X49903295Y-17699385D01*
X49786739Y-17786739D01*
X49699385Y-17903295D01*
X49648255Y-18039684D01*
X49641500Y-18101866D01*
X49641500Y-19898134D01*
X49648255Y-19960316D01*
X49699385Y-20096705D01*
X49786739Y-20213261D01*
X49903295Y-20300615D01*
X49911704Y-20303767D01*
X49919575Y-20308077D01*
X49918664Y-20309741D01*
X49966490Y-20345663D01*
X49991193Y-20412224D01*
X49991500Y-20421009D01*
X49991500Y-21583694D01*
X49971498Y-21651815D01*
X49960317Y-21665702D01*
X49960404Y-21665771D01*
X49955866Y-21671517D01*
X49950695Y-21676697D01*
X49928890Y-21712072D01*
X49924078Y-21719878D01*
X49871306Y-21767371D01*
X49861441Y-21771596D01*
X49860931Y-21771789D01*
X49841278Y-21777173D01*
X49838703Y-21777950D01*
X49831216Y-21779257D01*
X49824259Y-21782311D01*
X49772705Y-21804942D01*
X49766601Y-21807433D01*
X49706844Y-21830013D01*
X49700581Y-21834317D01*
X49698215Y-21835554D01*
X49683403Y-21843799D01*
X49681149Y-21845132D01*
X49674195Y-21848185D01*
X49623498Y-21887087D01*
X49618168Y-21890959D01*
X49571780Y-21922839D01*
X49571775Y-21922844D01*
X49565519Y-21927143D01*
X49563813Y-21929058D01*
X49501429Y-21958196D01*
X49431071Y-21948693D01*
X49406866Y-21934462D01*
X49333892Y-21879771D01*
X49333890Y-21879770D01*
X49326705Y-21874385D01*
X49190316Y-21823255D01*
X49140383Y-21817831D01*
X49074822Y-21790590D01*
X49034395Y-21732227D01*
X49028904Y-21707705D01*
X49025906Y-21682928D01*
X49023102Y-21659758D01*
X49020419Y-21652657D01*
X49019778Y-21650048D01*
X49015315Y-21633738D01*
X49014550Y-21631202D01*
X49013243Y-21623716D01*
X48987556Y-21565200D01*
X48985065Y-21559096D01*
X48965173Y-21506452D01*
X48965172Y-21506451D01*
X48962487Y-21499344D01*
X48958183Y-21493081D01*
X48956946Y-21490715D01*
X48948701Y-21475903D01*
X48947368Y-21473649D01*
X48944315Y-21466695D01*
X48905413Y-21415998D01*
X48901541Y-21410668D01*
X48869661Y-21364280D01*
X48869656Y-21364275D01*
X48865357Y-21358019D01*
X48818829Y-21316564D01*
X48813554Y-21311584D01*
X48021162Y-20519192D01*
X47987136Y-20456880D01*
X47992201Y-20386065D01*
X48034748Y-20329229D01*
X48066027Y-20312116D01*
X48081287Y-20306395D01*
X48088298Y-20303767D01*
X48088300Y-20303766D01*
X48096705Y-20300615D01*
X48213261Y-20213261D01*
X48300615Y-20096705D01*
X48351745Y-19960316D01*
X48358500Y-19898134D01*
X48358500Y-18101866D01*
X48351745Y-18039684D01*
X48300615Y-17903295D01*
X48213261Y-17786739D01*
X48096705Y-17699385D01*
X47960316Y-17648255D01*
X47898134Y-17641500D01*
X46101866Y-17641500D01*
X46039684Y-17648255D01*
X45903295Y-17699385D01*
X45786739Y-17786739D01*
X45699385Y-17903295D01*
X45648255Y-18039684D01*
X45641500Y-18101866D01*
X45641500Y-19335340D01*
X45621498Y-19403461D01*
X45567842Y-19449954D01*
X45497568Y-19460058D01*
X45432988Y-19430564D01*
X45426405Y-19424435D01*
X45158942Y-19156972D01*
X45153088Y-19150706D01*
X45120056Y-19112840D01*
X45120053Y-19112837D01*
X45115061Y-19107115D01*
X45062780Y-19070371D01*
X45057486Y-19066439D01*
X45013193Y-19031709D01*
X45007218Y-19027024D01*
X45000302Y-19023901D01*
X44998016Y-19022517D01*
X44983335Y-19014143D01*
X44980975Y-19012878D01*
X44974761Y-19008510D01*
X44967682Y-19005750D01*
X44967680Y-19005749D01*
X44915225Y-18985298D01*
X44909156Y-18982747D01*
X44850927Y-18956455D01*
X44843460Y-18955071D01*
X44840905Y-18954270D01*
X44824652Y-18949641D01*
X44822072Y-18948978D01*
X44814991Y-18946218D01*
X44807460Y-18945227D01*
X44807458Y-18945226D01*
X44777839Y-18941327D01*
X44751639Y-18937878D01*
X44745141Y-18936848D01*
X44682314Y-18925204D01*
X44674734Y-18925641D01*
X44674733Y-18925641D01*
X44620108Y-18928791D01*
X44612854Y-18929000D01*
X44431940Y-18929000D01*
X44363819Y-18908998D01*
X44333194Y-18881264D01*
X44329968Y-18877194D01*
X44326116Y-18870969D01*
X44297270Y-18842173D01*
X44208184Y-18753242D01*
X44208179Y-18753238D01*
X44203003Y-18748071D01*
X44054920Y-18656791D01*
X43889809Y-18602026D01*
X43882973Y-18601326D01*
X43882970Y-18601325D01*
X43831474Y-18596049D01*
X43787072Y-18591500D01*
X43212928Y-18591500D01*
X43209682Y-18591837D01*
X43209678Y-18591837D01*
X43115765Y-18601581D01*
X43115761Y-18601582D01*
X43108907Y-18602293D01*
X43102371Y-18604474D01*
X43102369Y-18604474D01*
X42969605Y-18648768D01*
X42943893Y-18657346D01*
X42795969Y-18748884D01*
X42790796Y-18754066D01*
X42790791Y-18754070D01*
X42702998Y-18842017D01*
X42640716Y-18876097D01*
X42613825Y-18879000D01*
X42386288Y-18879000D01*
X42318167Y-18858998D01*
X42297271Y-18842173D01*
X42208188Y-18753246D01*
X42208183Y-18753242D01*
X42203003Y-18748071D01*
X42054920Y-18656791D01*
X41889809Y-18602026D01*
X41882973Y-18601326D01*
X41882970Y-18601325D01*
X41831474Y-18596049D01*
X41787072Y-18591500D01*
X41212928Y-18591500D01*
X41209682Y-18591837D01*
X41209678Y-18591837D01*
X41115765Y-18601581D01*
X41115761Y-18601582D01*
X41108907Y-18602293D01*
X41102371Y-18604474D01*
X41102369Y-18604474D01*
X40969605Y-18648768D01*
X40943893Y-18657346D01*
X40795969Y-18748884D01*
X40790796Y-18754066D01*
X40790791Y-18754070D01*
X40702998Y-18842017D01*
X40640716Y-18876097D01*
X40613825Y-18879000D01*
X40386288Y-18879000D01*
X40318167Y-18858998D01*
X40297271Y-18842173D01*
X40208188Y-18753246D01*
X40208183Y-18753242D01*
X40203003Y-18748071D01*
X40054920Y-18656791D01*
X39889809Y-18602026D01*
X39882973Y-18601326D01*
X39882970Y-18601325D01*
X39831474Y-18596049D01*
X39787072Y-18591500D01*
X39212928Y-18591500D01*
X39209682Y-18591837D01*
X39209678Y-18591837D01*
X39115765Y-18601581D01*
X39115761Y-18601582D01*
X39108907Y-18602293D01*
X39102371Y-18604474D01*
X39102369Y-18604474D01*
X38969605Y-18648768D01*
X38943893Y-18657346D01*
X38795969Y-18748884D01*
X38790796Y-18754066D01*
X38678242Y-18866816D01*
X38678238Y-18866821D01*
X38673071Y-18871997D01*
X38669231Y-18878227D01*
X38669230Y-18878228D01*
X38619083Y-18959582D01*
X38581791Y-19020080D01*
X38527026Y-19185191D01*
X38516500Y-19287928D01*
X38516500Y-19887072D01*
X38516837Y-19890318D01*
X38516837Y-19890322D01*
X38524100Y-19960316D01*
X38527293Y-19991093D01*
X38582346Y-20156107D01*
X38673884Y-20304031D01*
X38679066Y-20309204D01*
X38780786Y-20410747D01*
X38814865Y-20473030D01*
X38809862Y-20543850D01*
X38780941Y-20588937D01*
X38678246Y-20691812D01*
X38678242Y-20691817D01*
X38673071Y-20696997D01*
X38581791Y-20845080D01*
X38527026Y-21010191D01*
X38516500Y-21112928D01*
X38516500Y-21712072D01*
X36508500Y-21712072D01*
X36508500Y-18053250D01*
X36510246Y-18032345D01*
X36512770Y-18017344D01*
X36512770Y-18017341D01*
X36513576Y-18012552D01*
X36513729Y-18000000D01*
X36513040Y-17995186D01*
X36513039Y-17995177D01*
X36511869Y-17987006D01*
X36510827Y-17961540D01*
X36526206Y-17707290D01*
X36528040Y-17692186D01*
X36579523Y-17411246D01*
X36583164Y-17396473D01*
X36668141Y-17123773D01*
X36673534Y-17109555D01*
X36790758Y-16849092D01*
X36797828Y-16835621D01*
X36945595Y-16591187D01*
X36954238Y-16578666D01*
X37130385Y-16353829D01*
X37140475Y-16342440D01*
X37342440Y-16140475D01*
X37353829Y-16130385D01*
X37578666Y-15954238D01*
X37591187Y-15945595D01*
X37835621Y-15797828D01*
X37849094Y-15790757D01*
X37891777Y-15771547D01*
X38109555Y-15673534D01*
X38123769Y-15668142D01*
X38396474Y-15583164D01*
X38411240Y-15579525D01*
X38620214Y-15541229D01*
X38692186Y-15528040D01*
X38707290Y-15526206D01*
X38957904Y-15511047D01*
X38984716Y-15512308D01*
X38984852Y-15512310D01*
X38993724Y-15513691D01*
X39002626Y-15512527D01*
X39002628Y-15512527D01*
X39017677Y-15510559D01*
X39025286Y-15509564D01*
X39041621Y-15508500D01*
X51950633Y-15508500D01*
X51970018Y-15510000D01*
G37*
%TD.AperFunction*%
%TD*%
%TA.AperFunction,Conductor*%
%TO.N,Board_2-GND*%
G36*
X30970018Y-34510000D02*
G01*
X30984851Y-34512310D01*
X30984855Y-34512310D01*
X30993724Y-34513691D01*
X31010923Y-34511442D01*
X31034863Y-34510609D01*
X31292710Y-34526206D01*
X31307814Y-34528040D01*
X31379786Y-34541229D01*
X31588760Y-34579525D01*
X31603526Y-34583164D01*
X31876231Y-34668142D01*
X31890445Y-34673534D01*
X32108223Y-34771547D01*
X32150906Y-34790757D01*
X32164379Y-34797828D01*
X32408813Y-34945595D01*
X32421334Y-34954238D01*
X32646171Y-35130385D01*
X32657560Y-35140475D01*
X32859525Y-35342440D01*
X32869615Y-35353829D01*
X33045762Y-35578666D01*
X33054405Y-35591187D01*
X33202172Y-35835621D01*
X33209242Y-35849092D01*
X33326466Y-36109555D01*
X33331859Y-36123773D01*
X33416836Y-36396473D01*
X33420477Y-36411246D01*
X33471960Y-36692186D01*
X33473794Y-36707290D01*
X33488953Y-36957904D01*
X33487692Y-36984716D01*
X33487690Y-36984852D01*
X33486309Y-36993724D01*
X33487473Y-37002626D01*
X33487473Y-37002628D01*
X33490436Y-37025283D01*
X33491500Y-37041621D01*
X33491500Y-47950633D01*
X33490000Y-47970018D01*
X33487690Y-47984851D01*
X33487690Y-47984855D01*
X33486309Y-47993724D01*
X33488558Y-48010919D01*
X33489391Y-48034863D01*
X33473794Y-48292710D01*
X33471960Y-48307814D01*
X33420477Y-48588754D01*
X33416836Y-48603527D01*
X33331859Y-48876227D01*
X33326466Y-48890445D01*
X33209243Y-49150906D01*
X33202172Y-49164379D01*
X33054405Y-49408813D01*
X33045762Y-49421334D01*
X32869615Y-49646171D01*
X32859525Y-49657560D01*
X32657560Y-49859525D01*
X32646171Y-49869615D01*
X32421334Y-50045762D01*
X32408813Y-50054405D01*
X32164379Y-50202172D01*
X32150908Y-50209242D01*
X31890445Y-50326466D01*
X31876231Y-50331858D01*
X31603527Y-50416836D01*
X31588760Y-50420475D01*
X31379786Y-50458771D01*
X31307814Y-50471960D01*
X31292710Y-50473794D01*
X31042096Y-50488953D01*
X31015284Y-50487692D01*
X31015148Y-50487690D01*
X31006276Y-50486309D01*
X30997374Y-50487473D01*
X30997372Y-50487473D01*
X30982707Y-50489391D01*
X30974714Y-50490436D01*
X30958379Y-50491500D01*
X18049367Y-50491500D01*
X18029982Y-50490000D01*
X18015149Y-50487690D01*
X18015145Y-50487690D01*
X18006276Y-50486309D01*
X17989077Y-50488558D01*
X17965137Y-50489391D01*
X17707290Y-50473794D01*
X17692186Y-50471960D01*
X17620214Y-50458771D01*
X17411240Y-50420475D01*
X17396473Y-50416836D01*
X17123769Y-50331858D01*
X17109555Y-50326466D01*
X16849092Y-50209242D01*
X16835621Y-50202172D01*
X16591187Y-50054405D01*
X16578666Y-50045762D01*
X16353829Y-49869615D01*
X16342440Y-49859525D01*
X16140475Y-49657560D01*
X16130385Y-49646171D01*
X15954238Y-49421334D01*
X15945595Y-49408813D01*
X15797828Y-49164379D01*
X15790757Y-49150906D01*
X15673534Y-48890445D01*
X15668141Y-48876227D01*
X15583164Y-48603527D01*
X15579523Y-48588754D01*
X15528040Y-48307814D01*
X15526206Y-48292710D01*
X15511269Y-48045768D01*
X15512520Y-48022216D01*
X15512334Y-48022199D01*
X15512769Y-48017350D01*
X15513576Y-48012552D01*
X15513729Y-48000000D01*
X15509773Y-47972376D01*
X15508500Y-47954514D01*
X15508500Y-40712072D01*
X17516500Y-40712072D01*
X17516837Y-40715318D01*
X17516837Y-40715322D01*
X17526395Y-40807435D01*
X17527293Y-40816093D01*
X17529474Y-40822629D01*
X17529474Y-40822631D01*
X17535483Y-40840641D01*
X17582346Y-40981107D01*
X17673884Y-41129031D01*
X17679066Y-41134204D01*
X17704518Y-41159612D01*
X17738597Y-41221895D01*
X17741500Y-41248785D01*
X17741500Y-41432930D01*
X17740067Y-41451880D01*
X17736801Y-41473349D01*
X17737394Y-41480641D01*
X17737394Y-41480644D01*
X17741085Y-41526018D01*
X17741500Y-41536233D01*
X17741500Y-41544293D01*
X17741925Y-41547937D01*
X17744789Y-41572507D01*
X17745222Y-41576882D01*
X17751140Y-41649637D01*
X17753396Y-41656601D01*
X17754587Y-41662560D01*
X17755971Y-41668415D01*
X17756818Y-41675681D01*
X17781735Y-41744327D01*
X17783152Y-41748455D01*
X17805649Y-41817899D01*
X17809445Y-41824154D01*
X17811951Y-41829628D01*
X17814670Y-41835058D01*
X17817167Y-41841937D01*
X17821180Y-41848057D01*
X17821180Y-41848058D01*
X17857186Y-41902976D01*
X17859523Y-41906680D01*
X17897405Y-41969107D01*
X17901121Y-41973315D01*
X17901122Y-41973316D01*
X17904803Y-41977484D01*
X17904776Y-41977508D01*
X17907429Y-41980500D01*
X17910132Y-41983733D01*
X17914144Y-41989852D01*
X17929988Y-42004861D01*
X17970383Y-42043128D01*
X17972825Y-42045506D01*
X18204595Y-42277276D01*
X18238621Y-42339588D01*
X18241500Y-42366371D01*
X18241500Y-44912053D01*
X18241001Y-44923251D01*
X18240849Y-44924956D01*
X18239360Y-44932115D01*
X18241363Y-45006170D01*
X18241454Y-45009521D01*
X18241500Y-45012928D01*
X18241500Y-45515500D01*
X18221498Y-45583621D01*
X18167842Y-45630114D01*
X18115500Y-45641500D01*
X18101866Y-45641500D01*
X18039684Y-45648255D01*
X17903295Y-45699385D01*
X17786739Y-45786739D01*
X17699385Y-45903295D01*
X17648255Y-46039684D01*
X17641500Y-46101866D01*
X17641500Y-47898134D01*
X17648255Y-47960316D01*
X17699385Y-48096705D01*
X17786739Y-48213261D01*
X17903295Y-48300615D01*
X18039684Y-48351745D01*
X18101866Y-48358500D01*
X19898134Y-48358500D01*
X19906134Y-48357631D01*
X19960316Y-48351745D01*
X19960353Y-48352088D01*
X19978164Y-48350000D01*
X22024019Y-48350000D01*
X22039729Y-48351842D01*
X22039793Y-48351252D01*
X22098514Y-48357631D01*
X22105328Y-48358000D01*
X22727885Y-48358000D01*
X22743124Y-48353525D01*
X22744329Y-48352135D01*
X22746000Y-48344452D01*
X22746000Y-48339884D01*
X23254000Y-48339884D01*
X23258475Y-48355123D01*
X23259865Y-48356328D01*
X23267548Y-48357999D01*
X23894669Y-48357999D01*
X23901490Y-48357629D01*
X23952352Y-48352105D01*
X23967604Y-48348479D01*
X24088054Y-48303324D01*
X24103649Y-48294786D01*
X24205724Y-48218285D01*
X24218285Y-48205724D01*
X24294786Y-48103649D01*
X24303324Y-48088054D01*
X24348478Y-47967606D01*
X24352105Y-47952351D01*
X24357631Y-47901486D01*
X24358000Y-47894672D01*
X24358000Y-47272115D01*
X24353525Y-47256876D01*
X24352135Y-47255671D01*
X24344452Y-47254000D01*
X23272115Y-47254000D01*
X23256876Y-47258475D01*
X23255671Y-47259865D01*
X23254000Y-47267548D01*
X23254000Y-48339884D01*
X22746000Y-48339884D01*
X22746000Y-46727885D01*
X23254000Y-46727885D01*
X23258475Y-46743124D01*
X23259865Y-46744329D01*
X23267548Y-46746000D01*
X24339884Y-46746000D01*
X24355123Y-46741525D01*
X24356328Y-46740135D01*
X24357999Y-46732452D01*
X24357999Y-46105331D01*
X24357629Y-46098510D01*
X24352105Y-46047648D01*
X24348479Y-46032396D01*
X24303324Y-45911946D01*
X24294786Y-45896351D01*
X24218285Y-45794276D01*
X24205724Y-45781715D01*
X24103649Y-45705214D01*
X24088054Y-45696676D01*
X23967606Y-45651522D01*
X23952351Y-45647895D01*
X23901486Y-45642369D01*
X23894672Y-45642000D01*
X23272115Y-45642000D01*
X23256876Y-45646475D01*
X23255671Y-45647865D01*
X23254000Y-45655548D01*
X23254000Y-46727885D01*
X22746000Y-46727885D01*
X22746000Y-45660116D01*
X22741525Y-45644876D01*
X22722653Y-45628523D01*
X22684269Y-45568797D01*
X22684269Y-45497801D01*
X22722653Y-45438075D01*
X22792161Y-45407972D01*
X22884235Y-45398419D01*
X22884239Y-45398418D01*
X22891093Y-45397707D01*
X22897629Y-45395526D01*
X22897631Y-45395526D01*
X23049159Y-45344972D01*
X23056107Y-45342654D01*
X23204031Y-45251116D01*
X23326929Y-45128003D01*
X23330768Y-45121775D01*
X23333033Y-45118907D01*
X23390950Y-45077845D01*
X23431914Y-45071000D01*
X24108588Y-45071000D01*
X24117158Y-45071292D01*
X24167276Y-45074709D01*
X24167280Y-45074709D01*
X24174852Y-45075225D01*
X24182329Y-45073920D01*
X24182330Y-45073920D01*
X24208808Y-45069299D01*
X24237803Y-45064238D01*
X24244321Y-45063277D01*
X24307742Y-45055602D01*
X24314843Y-45052919D01*
X24317452Y-45052278D01*
X24333762Y-45047815D01*
X24336298Y-45047050D01*
X24343784Y-45045743D01*
X24402300Y-45020056D01*
X24408404Y-45017565D01*
X24425194Y-45011221D01*
X24468156Y-44994987D01*
X24474419Y-44990683D01*
X24476785Y-44989446D01*
X24491597Y-44981201D01*
X24493851Y-44979868D01*
X24500805Y-44976815D01*
X24551502Y-44937913D01*
X24556832Y-44934041D01*
X24603220Y-44902161D01*
X24603225Y-44902156D01*
X24609481Y-44897857D01*
X24650936Y-44851329D01*
X24655916Y-44846054D01*
X25150520Y-44351450D01*
X25156785Y-44345596D01*
X25194660Y-44312555D01*
X25200385Y-44307561D01*
X25237114Y-44255300D01*
X25241046Y-44250005D01*
X25259640Y-44226292D01*
X25280477Y-44199718D01*
X25283602Y-44192796D01*
X25284964Y-44190548D01*
X25293368Y-44175815D01*
X25294622Y-44173476D01*
X25298990Y-44167261D01*
X25301749Y-44160185D01*
X25301751Y-44160181D01*
X25322200Y-44107731D01*
X25324749Y-44101666D01*
X25351045Y-44043427D01*
X25352429Y-44035962D01*
X25353226Y-44033418D01*
X25357859Y-44017152D01*
X25358521Y-44014572D01*
X25361282Y-44007491D01*
X25369622Y-43944143D01*
X25370653Y-43937629D01*
X25376961Y-43903598D01*
X25382296Y-43874813D01*
X25378709Y-43812602D01*
X25378500Y-43805349D01*
X25378500Y-43656291D01*
X25398502Y-43588170D01*
X25452158Y-43541677D01*
X25490892Y-43531028D01*
X25503086Y-43529703D01*
X25530316Y-43526745D01*
X25666705Y-43475615D01*
X25783261Y-43388261D01*
X25870615Y-43271705D01*
X25882018Y-43241288D01*
X25924660Y-43184524D01*
X25991222Y-43159824D01*
X26060570Y-43175032D01*
X26110688Y-43225318D01*
X26117982Y-43241288D01*
X26129385Y-43271705D01*
X26216739Y-43388261D01*
X26333295Y-43475615D01*
X26469684Y-43526745D01*
X26531866Y-43533500D01*
X27979339Y-43533500D01*
X28047460Y-43553502D01*
X28068435Y-43570405D01*
X28516065Y-44018036D01*
X28521918Y-44024301D01*
X28559939Y-44067885D01*
X28612229Y-44104636D01*
X28617471Y-44108528D01*
X28667782Y-44147976D01*
X28674701Y-44151100D01*
X28676993Y-44152488D01*
X28691665Y-44160857D01*
X28694025Y-44162122D01*
X28700239Y-44166490D01*
X28707318Y-44169250D01*
X28707320Y-44169251D01*
X28759775Y-44189702D01*
X28765844Y-44192253D01*
X28824073Y-44218545D01*
X28831546Y-44219930D01*
X28834112Y-44220734D01*
X28853623Y-44226292D01*
X28860009Y-44228782D01*
X28859093Y-44231130D01*
X28909683Y-44261238D01*
X28924493Y-44280670D01*
X28951522Y-44324348D01*
X28956704Y-44329521D01*
X28961249Y-44335255D01*
X28959576Y-44336581D01*
X28988598Y-44389625D01*
X28991500Y-44416511D01*
X28991500Y-45578991D01*
X28971498Y-45647112D01*
X28917842Y-45693605D01*
X28912306Y-45695903D01*
X28911704Y-45696232D01*
X28903295Y-45699385D01*
X28786739Y-45786739D01*
X28699385Y-45903295D01*
X28648255Y-46039684D01*
X28641500Y-46101866D01*
X28641500Y-47898134D01*
X28648255Y-47960316D01*
X28699385Y-48096705D01*
X28786739Y-48213261D01*
X28903295Y-48300615D01*
X29039684Y-48351745D01*
X29101866Y-48358500D01*
X30898134Y-48358500D01*
X30960316Y-48351745D01*
X31096705Y-48300615D01*
X31213261Y-48213261D01*
X31300615Y-48096705D01*
X31351745Y-47960316D01*
X31358500Y-47898134D01*
X31358500Y-46101866D01*
X31351745Y-46039684D01*
X31300615Y-45903295D01*
X31213261Y-45786739D01*
X31096705Y-45699385D01*
X31088296Y-45696233D01*
X31080425Y-45691923D01*
X31081336Y-45690259D01*
X31033510Y-45654337D01*
X31008807Y-45587776D01*
X31008500Y-45578991D01*
X31008500Y-44416306D01*
X31028502Y-44348185D01*
X31039683Y-44334298D01*
X31039596Y-44334229D01*
X31044134Y-44328483D01*
X31049305Y-44323303D01*
X31059009Y-44307561D01*
X31138275Y-44178968D01*
X31138276Y-44178966D01*
X31142115Y-44172738D01*
X31197797Y-44004861D01*
X31208500Y-43900400D01*
X31208500Y-43099600D01*
X31197526Y-42993834D01*
X31141550Y-42826054D01*
X31048478Y-42675652D01*
X30961891Y-42589216D01*
X30927812Y-42526934D01*
X30932815Y-42456114D01*
X30961736Y-42411025D01*
X31044134Y-42328483D01*
X31049305Y-42323303D01*
X31142115Y-42172738D01*
X31184723Y-42044279D01*
X31195632Y-42011389D01*
X31195632Y-42011387D01*
X31197797Y-42004861D01*
X31200236Y-41981062D01*
X31208172Y-41903598D01*
X31208500Y-41900400D01*
X31208500Y-41099600D01*
X31207162Y-41086703D01*
X31198238Y-41000692D01*
X31198237Y-41000688D01*
X31197526Y-40993834D01*
X31159472Y-40879771D01*
X31150476Y-40852807D01*
X31141550Y-40826054D01*
X31048478Y-40675652D01*
X31043296Y-40670479D01*
X31038751Y-40664745D01*
X31040424Y-40663419D01*
X31011402Y-40610375D01*
X31008500Y-40583489D01*
X31008500Y-39421009D01*
X31028502Y-39352888D01*
X31082158Y-39306395D01*
X31087694Y-39304097D01*
X31088297Y-39303767D01*
X31096705Y-39300615D01*
X31213261Y-39213261D01*
X31300615Y-39096705D01*
X31351745Y-38960316D01*
X31358500Y-38898134D01*
X31358500Y-37101866D01*
X31351745Y-37039684D01*
X31300615Y-36903295D01*
X31213261Y-36786739D01*
X31096705Y-36699385D01*
X30960316Y-36648255D01*
X30898134Y-36641500D01*
X29101866Y-36641500D01*
X29039684Y-36648255D01*
X28903295Y-36699385D01*
X28786739Y-36786739D01*
X28699385Y-36903295D01*
X28648255Y-37039684D01*
X28641500Y-37101866D01*
X28641500Y-38898134D01*
X28648255Y-38960316D01*
X28699385Y-39096705D01*
X28786739Y-39213261D01*
X28903295Y-39300615D01*
X28911704Y-39303767D01*
X28919575Y-39308077D01*
X28918664Y-39309741D01*
X28966490Y-39345663D01*
X28991193Y-39412224D01*
X28991500Y-39421009D01*
X28991500Y-40583694D01*
X28971498Y-40651815D01*
X28960317Y-40665702D01*
X28960404Y-40665771D01*
X28955866Y-40671517D01*
X28950695Y-40676697D01*
X28928890Y-40712072D01*
X28924078Y-40719878D01*
X28871306Y-40767371D01*
X28861441Y-40771596D01*
X28860931Y-40771789D01*
X28841278Y-40777173D01*
X28838703Y-40777950D01*
X28831216Y-40779257D01*
X28824259Y-40782311D01*
X28772705Y-40804942D01*
X28766601Y-40807433D01*
X28706844Y-40830013D01*
X28700581Y-40834317D01*
X28698215Y-40835554D01*
X28683403Y-40843799D01*
X28681149Y-40845132D01*
X28674195Y-40848185D01*
X28623498Y-40887087D01*
X28618168Y-40890959D01*
X28571780Y-40922839D01*
X28571775Y-40922844D01*
X28565519Y-40927143D01*
X28563813Y-40929058D01*
X28501429Y-40958196D01*
X28431071Y-40948693D01*
X28406866Y-40934462D01*
X28333892Y-40879771D01*
X28333890Y-40879770D01*
X28326705Y-40874385D01*
X28190316Y-40823255D01*
X28140383Y-40817831D01*
X28074822Y-40790590D01*
X28034395Y-40732227D01*
X28028904Y-40707705D01*
X28025906Y-40682928D01*
X28023102Y-40659758D01*
X28020419Y-40652657D01*
X28019778Y-40650048D01*
X28015315Y-40633738D01*
X28014550Y-40631202D01*
X28013243Y-40623716D01*
X27987556Y-40565200D01*
X27985065Y-40559096D01*
X27965173Y-40506452D01*
X27965172Y-40506451D01*
X27962487Y-40499344D01*
X27958183Y-40493081D01*
X27956946Y-40490715D01*
X27948701Y-40475903D01*
X27947368Y-40473649D01*
X27944315Y-40466695D01*
X27905413Y-40415998D01*
X27901541Y-40410668D01*
X27869661Y-40364280D01*
X27869656Y-40364275D01*
X27865357Y-40358019D01*
X27818829Y-40316564D01*
X27813554Y-40311584D01*
X27021162Y-39519192D01*
X26987136Y-39456880D01*
X26992201Y-39386065D01*
X27034748Y-39329229D01*
X27066027Y-39312116D01*
X27081287Y-39306395D01*
X27088298Y-39303767D01*
X27088300Y-39303766D01*
X27096705Y-39300615D01*
X27213261Y-39213261D01*
X27300615Y-39096705D01*
X27351745Y-38960316D01*
X27358500Y-38898134D01*
X27358500Y-37101866D01*
X27351745Y-37039684D01*
X27300615Y-36903295D01*
X27213261Y-36786739D01*
X27096705Y-36699385D01*
X26960316Y-36648255D01*
X26898134Y-36641500D01*
X25101866Y-36641500D01*
X25039684Y-36648255D01*
X24903295Y-36699385D01*
X24786739Y-36786739D01*
X24699385Y-36903295D01*
X24648255Y-37039684D01*
X24641500Y-37101866D01*
X24641500Y-38335340D01*
X24621498Y-38403461D01*
X24567842Y-38449954D01*
X24497568Y-38460058D01*
X24432988Y-38430564D01*
X24426405Y-38424435D01*
X24158942Y-38156972D01*
X24153088Y-38150706D01*
X24120056Y-38112840D01*
X24120053Y-38112837D01*
X24115061Y-38107115D01*
X24062780Y-38070371D01*
X24057486Y-38066439D01*
X24013193Y-38031709D01*
X24007218Y-38027024D01*
X24000302Y-38023901D01*
X23998016Y-38022517D01*
X23983335Y-38014143D01*
X23980975Y-38012878D01*
X23974761Y-38008510D01*
X23967682Y-38005750D01*
X23967680Y-38005749D01*
X23915225Y-37985298D01*
X23909156Y-37982747D01*
X23850927Y-37956455D01*
X23843460Y-37955071D01*
X23840905Y-37954270D01*
X23824652Y-37949641D01*
X23822072Y-37948978D01*
X23814991Y-37946218D01*
X23807460Y-37945227D01*
X23807458Y-37945226D01*
X23777839Y-37941327D01*
X23751639Y-37937878D01*
X23745141Y-37936848D01*
X23682314Y-37925204D01*
X23674734Y-37925641D01*
X23674733Y-37925641D01*
X23620108Y-37928791D01*
X23612854Y-37929000D01*
X23431940Y-37929000D01*
X23363819Y-37908998D01*
X23333194Y-37881264D01*
X23329968Y-37877194D01*
X23326116Y-37870969D01*
X23297270Y-37842173D01*
X23208184Y-37753242D01*
X23208179Y-37753238D01*
X23203003Y-37748071D01*
X23054920Y-37656791D01*
X22889809Y-37602026D01*
X22882973Y-37601326D01*
X22882970Y-37601325D01*
X22831474Y-37596049D01*
X22787072Y-37591500D01*
X22212928Y-37591500D01*
X22209682Y-37591837D01*
X22209678Y-37591837D01*
X22115765Y-37601581D01*
X22115761Y-37601582D01*
X22108907Y-37602293D01*
X22102371Y-37604474D01*
X22102369Y-37604474D01*
X21969605Y-37648768D01*
X21943893Y-37657346D01*
X21795969Y-37748884D01*
X21790796Y-37754066D01*
X21790791Y-37754070D01*
X21702998Y-37842017D01*
X21640716Y-37876097D01*
X21613825Y-37879000D01*
X21386288Y-37879000D01*
X21318167Y-37858998D01*
X21297271Y-37842173D01*
X21208188Y-37753246D01*
X21208183Y-37753242D01*
X21203003Y-37748071D01*
X21054920Y-37656791D01*
X20889809Y-37602026D01*
X20882973Y-37601326D01*
X20882970Y-37601325D01*
X20831474Y-37596049D01*
X20787072Y-37591500D01*
X20212928Y-37591500D01*
X20209682Y-37591837D01*
X20209678Y-37591837D01*
X20115765Y-37601581D01*
X20115761Y-37601582D01*
X20108907Y-37602293D01*
X20102371Y-37604474D01*
X20102369Y-37604474D01*
X19969605Y-37648768D01*
X19943893Y-37657346D01*
X19795969Y-37748884D01*
X19790796Y-37754066D01*
X19790791Y-37754070D01*
X19702998Y-37842017D01*
X19640716Y-37876097D01*
X19613825Y-37879000D01*
X19386288Y-37879000D01*
X19318167Y-37858998D01*
X19297271Y-37842173D01*
X19208188Y-37753246D01*
X19208183Y-37753242D01*
X19203003Y-37748071D01*
X19054920Y-37656791D01*
X18889809Y-37602026D01*
X18882973Y-37601326D01*
X18882970Y-37601325D01*
X18831474Y-37596049D01*
X18787072Y-37591500D01*
X18212928Y-37591500D01*
X18209682Y-37591837D01*
X18209678Y-37591837D01*
X18115765Y-37601581D01*
X18115761Y-37601582D01*
X18108907Y-37602293D01*
X18102371Y-37604474D01*
X18102369Y-37604474D01*
X17969605Y-37648768D01*
X17943893Y-37657346D01*
X17795969Y-37748884D01*
X17790796Y-37754066D01*
X17678242Y-37866816D01*
X17678238Y-37866821D01*
X17673071Y-37871997D01*
X17669231Y-37878227D01*
X17669230Y-37878228D01*
X17619083Y-37959582D01*
X17581791Y-38020080D01*
X17527026Y-38185191D01*
X17516500Y-38287928D01*
X17516500Y-38887072D01*
X17516837Y-38890318D01*
X17516837Y-38890322D01*
X17524100Y-38960316D01*
X17527293Y-38991093D01*
X17582346Y-39156107D01*
X17673884Y-39304031D01*
X17679066Y-39309204D01*
X17780786Y-39410747D01*
X17814865Y-39473030D01*
X17809862Y-39543850D01*
X17780941Y-39588937D01*
X17678246Y-39691812D01*
X17678242Y-39691817D01*
X17673071Y-39696997D01*
X17581791Y-39845080D01*
X17527026Y-40010191D01*
X17516500Y-40112928D01*
X17516500Y-40712072D01*
X15508500Y-40712072D01*
X15508500Y-37053250D01*
X15510246Y-37032345D01*
X15512770Y-37017344D01*
X15512770Y-37017341D01*
X15513576Y-37012552D01*
X15513729Y-37000000D01*
X15513040Y-36995186D01*
X15513039Y-36995177D01*
X15511869Y-36987006D01*
X15510827Y-36961540D01*
X15526206Y-36707290D01*
X15528040Y-36692186D01*
X15579523Y-36411246D01*
X15583164Y-36396473D01*
X15668141Y-36123773D01*
X15673534Y-36109555D01*
X15790758Y-35849092D01*
X15797828Y-35835621D01*
X15945595Y-35591187D01*
X15954238Y-35578666D01*
X16130385Y-35353829D01*
X16140475Y-35342440D01*
X16342440Y-35140475D01*
X16353829Y-35130385D01*
X16578666Y-34954238D01*
X16591187Y-34945595D01*
X16835621Y-34797828D01*
X16849094Y-34790757D01*
X16891777Y-34771547D01*
X17109555Y-34673534D01*
X17123769Y-34668142D01*
X17396474Y-34583164D01*
X17411240Y-34579525D01*
X17620214Y-34541229D01*
X17692186Y-34528040D01*
X17707290Y-34526206D01*
X17957904Y-34511047D01*
X17984716Y-34512308D01*
X17984852Y-34512310D01*
X17993724Y-34513691D01*
X18002626Y-34512527D01*
X18002628Y-34512527D01*
X18017677Y-34510559D01*
X18025286Y-34509564D01*
X18041621Y-34508500D01*
X30950633Y-34508500D01*
X30970018Y-34510000D01*
G37*
%TD.AperFunction*%
%TD*%
%TA.AperFunction,Conductor*%
%TO.N,Board_3-GND*%
G36*
X51970018Y-34510000D02*
G01*
X51984851Y-34512310D01*
X51984855Y-34512310D01*
X51993724Y-34513691D01*
X52010923Y-34511442D01*
X52034863Y-34510609D01*
X52292710Y-34526206D01*
X52307814Y-34528040D01*
X52379786Y-34541229D01*
X52588760Y-34579525D01*
X52603526Y-34583164D01*
X52876231Y-34668142D01*
X52890445Y-34673534D01*
X53108223Y-34771547D01*
X53150906Y-34790757D01*
X53164379Y-34797828D01*
X53408813Y-34945595D01*
X53421334Y-34954238D01*
X53646171Y-35130385D01*
X53657560Y-35140475D01*
X53859525Y-35342440D01*
X53869615Y-35353829D01*
X54045762Y-35578666D01*
X54054405Y-35591187D01*
X54202172Y-35835621D01*
X54209242Y-35849092D01*
X54326466Y-36109555D01*
X54331859Y-36123773D01*
X54416836Y-36396473D01*
X54420477Y-36411246D01*
X54471960Y-36692186D01*
X54473794Y-36707290D01*
X54488953Y-36957904D01*
X54487692Y-36984716D01*
X54487690Y-36984852D01*
X54486309Y-36993724D01*
X54487473Y-37002626D01*
X54487473Y-37002628D01*
X54490436Y-37025283D01*
X54491500Y-37041621D01*
X54491500Y-47950633D01*
X54490000Y-47970018D01*
X54487690Y-47984851D01*
X54487690Y-47984855D01*
X54486309Y-47993724D01*
X54488558Y-48010919D01*
X54489391Y-48034863D01*
X54473794Y-48292710D01*
X54471960Y-48307814D01*
X54420477Y-48588754D01*
X54416836Y-48603527D01*
X54331859Y-48876227D01*
X54326466Y-48890445D01*
X54209243Y-49150906D01*
X54202172Y-49164379D01*
X54054405Y-49408813D01*
X54045762Y-49421334D01*
X53869615Y-49646171D01*
X53859525Y-49657560D01*
X53657560Y-49859525D01*
X53646171Y-49869615D01*
X53421334Y-50045762D01*
X53408813Y-50054405D01*
X53164379Y-50202172D01*
X53150908Y-50209242D01*
X52890445Y-50326466D01*
X52876231Y-50331858D01*
X52603527Y-50416836D01*
X52588760Y-50420475D01*
X52379786Y-50458771D01*
X52307814Y-50471960D01*
X52292710Y-50473794D01*
X52042096Y-50488953D01*
X52015284Y-50487692D01*
X52015148Y-50487690D01*
X52006276Y-50486309D01*
X51997374Y-50487473D01*
X51997372Y-50487473D01*
X51982707Y-50489391D01*
X51974714Y-50490436D01*
X51958379Y-50491500D01*
X39049367Y-50491500D01*
X39029982Y-50490000D01*
X39015149Y-50487690D01*
X39015145Y-50487690D01*
X39006276Y-50486309D01*
X38989077Y-50488558D01*
X38965137Y-50489391D01*
X38707290Y-50473794D01*
X38692186Y-50471960D01*
X38620214Y-50458771D01*
X38411240Y-50420475D01*
X38396473Y-50416836D01*
X38123769Y-50331858D01*
X38109555Y-50326466D01*
X37849092Y-50209242D01*
X37835621Y-50202172D01*
X37591187Y-50054405D01*
X37578666Y-50045762D01*
X37353829Y-49869615D01*
X37342440Y-49859525D01*
X37140475Y-49657560D01*
X37130385Y-49646171D01*
X36954238Y-49421334D01*
X36945595Y-49408813D01*
X36797828Y-49164379D01*
X36790757Y-49150906D01*
X36673534Y-48890445D01*
X36668141Y-48876227D01*
X36583164Y-48603527D01*
X36579523Y-48588754D01*
X36528040Y-48307814D01*
X36526206Y-48292710D01*
X36511269Y-48045768D01*
X36512520Y-48022216D01*
X36512334Y-48022199D01*
X36512769Y-48017350D01*
X36513576Y-48012552D01*
X36513729Y-48000000D01*
X36509773Y-47972376D01*
X36508500Y-47954514D01*
X36508500Y-40712072D01*
X38516500Y-40712072D01*
X38516837Y-40715318D01*
X38516837Y-40715322D01*
X38526395Y-40807435D01*
X38527293Y-40816093D01*
X38529474Y-40822629D01*
X38529474Y-40822631D01*
X38535483Y-40840641D01*
X38582346Y-40981107D01*
X38673884Y-41129031D01*
X38679066Y-41134204D01*
X38704518Y-41159612D01*
X38738597Y-41221895D01*
X38741500Y-41248785D01*
X38741500Y-41432930D01*
X38740067Y-41451880D01*
X38736801Y-41473349D01*
X38737394Y-41480641D01*
X38737394Y-41480644D01*
X38741085Y-41526018D01*
X38741500Y-41536233D01*
X38741500Y-41544293D01*
X38741925Y-41547937D01*
X38744789Y-41572507D01*
X38745222Y-41576882D01*
X38751140Y-41649637D01*
X38753396Y-41656601D01*
X38754587Y-41662560D01*
X38755971Y-41668415D01*
X38756818Y-41675681D01*
X38781735Y-41744327D01*
X38783152Y-41748455D01*
X38805649Y-41817899D01*
X38809445Y-41824154D01*
X38811951Y-41829628D01*
X38814670Y-41835058D01*
X38817167Y-41841937D01*
X38821180Y-41848057D01*
X38821180Y-41848058D01*
X38857186Y-41902976D01*
X38859523Y-41906680D01*
X38897405Y-41969107D01*
X38901121Y-41973315D01*
X38901122Y-41973316D01*
X38904803Y-41977484D01*
X38904776Y-41977508D01*
X38907429Y-41980500D01*
X38910132Y-41983733D01*
X38914144Y-41989852D01*
X38929988Y-42004861D01*
X38970383Y-42043128D01*
X38972825Y-42045506D01*
X39204595Y-42277276D01*
X39238621Y-42339588D01*
X39241500Y-42366371D01*
X39241500Y-44912053D01*
X39241001Y-44923251D01*
X39240849Y-44924956D01*
X39239360Y-44932115D01*
X39241363Y-45006170D01*
X39241454Y-45009521D01*
X39241500Y-45012928D01*
X39241500Y-45515500D01*
X39221498Y-45583621D01*
X39167842Y-45630114D01*
X39115500Y-45641500D01*
X39101866Y-45641500D01*
X39039684Y-45648255D01*
X38903295Y-45699385D01*
X38786739Y-45786739D01*
X38699385Y-45903295D01*
X38648255Y-46039684D01*
X38641500Y-46101866D01*
X38641500Y-47898134D01*
X38648255Y-47960316D01*
X38699385Y-48096705D01*
X38786739Y-48213261D01*
X38903295Y-48300615D01*
X39039684Y-48351745D01*
X39101866Y-48358500D01*
X40898134Y-48358500D01*
X40906134Y-48357631D01*
X40960316Y-48351745D01*
X40960353Y-48352088D01*
X40978164Y-48350000D01*
X43024019Y-48350000D01*
X43039729Y-48351842D01*
X43039793Y-48351252D01*
X43098514Y-48357631D01*
X43105328Y-48358000D01*
X43727885Y-48358000D01*
X43743124Y-48353525D01*
X43744329Y-48352135D01*
X43746000Y-48344452D01*
X43746000Y-48339884D01*
X44254000Y-48339884D01*
X44258475Y-48355123D01*
X44259865Y-48356328D01*
X44267548Y-48357999D01*
X44894669Y-48357999D01*
X44901490Y-48357629D01*
X44952352Y-48352105D01*
X44967604Y-48348479D01*
X45088054Y-48303324D01*
X45103649Y-48294786D01*
X45205724Y-48218285D01*
X45218285Y-48205724D01*
X45294786Y-48103649D01*
X45303324Y-48088054D01*
X45348478Y-47967606D01*
X45352105Y-47952351D01*
X45357631Y-47901486D01*
X45358000Y-47894672D01*
X45358000Y-47272115D01*
X45353525Y-47256876D01*
X45352135Y-47255671D01*
X45344452Y-47254000D01*
X44272115Y-47254000D01*
X44256876Y-47258475D01*
X44255671Y-47259865D01*
X44254000Y-47267548D01*
X44254000Y-48339884D01*
X43746000Y-48339884D01*
X43746000Y-46727885D01*
X44254000Y-46727885D01*
X44258475Y-46743124D01*
X44259865Y-46744329D01*
X44267548Y-46746000D01*
X45339884Y-46746000D01*
X45355123Y-46741525D01*
X45356328Y-46740135D01*
X45357999Y-46732452D01*
X45357999Y-46105331D01*
X45357629Y-46098510D01*
X45352105Y-46047648D01*
X45348479Y-46032396D01*
X45303324Y-45911946D01*
X45294786Y-45896351D01*
X45218285Y-45794276D01*
X45205724Y-45781715D01*
X45103649Y-45705214D01*
X45088054Y-45696676D01*
X44967606Y-45651522D01*
X44952351Y-45647895D01*
X44901486Y-45642369D01*
X44894672Y-45642000D01*
X44272115Y-45642000D01*
X44256876Y-45646475D01*
X44255671Y-45647865D01*
X44254000Y-45655548D01*
X44254000Y-46727885D01*
X43746000Y-46727885D01*
X43746000Y-45660116D01*
X43741525Y-45644876D01*
X43722653Y-45628523D01*
X43684269Y-45568797D01*
X43684269Y-45497801D01*
X43722653Y-45438075D01*
X43792161Y-45407972D01*
X43884235Y-45398419D01*
X43884239Y-45398418D01*
X43891093Y-45397707D01*
X43897629Y-45395526D01*
X43897631Y-45395526D01*
X44049159Y-45344972D01*
X44056107Y-45342654D01*
X44204031Y-45251116D01*
X44326929Y-45128003D01*
X44330768Y-45121775D01*
X44333033Y-45118907D01*
X44390950Y-45077845D01*
X44431914Y-45071000D01*
X45108588Y-45071000D01*
X45117158Y-45071292D01*
X45167276Y-45074709D01*
X45167280Y-45074709D01*
X45174852Y-45075225D01*
X45182329Y-45073920D01*
X45182330Y-45073920D01*
X45208808Y-45069299D01*
X45237803Y-45064238D01*
X45244321Y-45063277D01*
X45307742Y-45055602D01*
X45314843Y-45052919D01*
X45317452Y-45052278D01*
X45333762Y-45047815D01*
X45336298Y-45047050D01*
X45343784Y-45045743D01*
X45402300Y-45020056D01*
X45408404Y-45017565D01*
X45425194Y-45011221D01*
X45468156Y-44994987D01*
X45474419Y-44990683D01*
X45476785Y-44989446D01*
X45491597Y-44981201D01*
X45493851Y-44979868D01*
X45500805Y-44976815D01*
X45551502Y-44937913D01*
X45556832Y-44934041D01*
X45603220Y-44902161D01*
X45603225Y-44902156D01*
X45609481Y-44897857D01*
X45650936Y-44851329D01*
X45655916Y-44846054D01*
X46150520Y-44351450D01*
X46156785Y-44345596D01*
X46194660Y-44312555D01*
X46200385Y-44307561D01*
X46237114Y-44255300D01*
X46241046Y-44250005D01*
X46259640Y-44226292D01*
X46280477Y-44199718D01*
X46283602Y-44192796D01*
X46284964Y-44190548D01*
X46293368Y-44175815D01*
X46294622Y-44173476D01*
X46298990Y-44167261D01*
X46301749Y-44160185D01*
X46301751Y-44160181D01*
X46322200Y-44107731D01*
X46324749Y-44101666D01*
X46351045Y-44043427D01*
X46352429Y-44035962D01*
X46353226Y-44033418D01*
X46357859Y-44017152D01*
X46358521Y-44014572D01*
X46361282Y-44007491D01*
X46369622Y-43944143D01*
X46370653Y-43937629D01*
X46376961Y-43903598D01*
X46382296Y-43874813D01*
X46378709Y-43812602D01*
X46378500Y-43805349D01*
X46378500Y-43656291D01*
X46398502Y-43588170D01*
X46452158Y-43541677D01*
X46490892Y-43531028D01*
X46503086Y-43529703D01*
X46530316Y-43526745D01*
X46666705Y-43475615D01*
X46783261Y-43388261D01*
X46870615Y-43271705D01*
X46882018Y-43241288D01*
X46924660Y-43184524D01*
X46991222Y-43159824D01*
X47060570Y-43175032D01*
X47110688Y-43225318D01*
X47117982Y-43241288D01*
X47129385Y-43271705D01*
X47216739Y-43388261D01*
X47333295Y-43475615D01*
X47469684Y-43526745D01*
X47531866Y-43533500D01*
X48979339Y-43533500D01*
X49047460Y-43553502D01*
X49068435Y-43570405D01*
X49516065Y-44018036D01*
X49521918Y-44024301D01*
X49559939Y-44067885D01*
X49612229Y-44104636D01*
X49617471Y-44108528D01*
X49667782Y-44147976D01*
X49674701Y-44151100D01*
X49676993Y-44152488D01*
X49691665Y-44160857D01*
X49694025Y-44162122D01*
X49700239Y-44166490D01*
X49707318Y-44169250D01*
X49707320Y-44169251D01*
X49759775Y-44189702D01*
X49765844Y-44192253D01*
X49824073Y-44218545D01*
X49831546Y-44219930D01*
X49834112Y-44220734D01*
X49853623Y-44226292D01*
X49860009Y-44228782D01*
X49859093Y-44231130D01*
X49909683Y-44261238D01*
X49924493Y-44280670D01*
X49951522Y-44324348D01*
X49956704Y-44329521D01*
X49961249Y-44335255D01*
X49959576Y-44336581D01*
X49988598Y-44389625D01*
X49991500Y-44416511D01*
X49991500Y-45578991D01*
X49971498Y-45647112D01*
X49917842Y-45693605D01*
X49912306Y-45695903D01*
X49911704Y-45696232D01*
X49903295Y-45699385D01*
X49786739Y-45786739D01*
X49699385Y-45903295D01*
X49648255Y-46039684D01*
X49641500Y-46101866D01*
X49641500Y-47898134D01*
X49648255Y-47960316D01*
X49699385Y-48096705D01*
X49786739Y-48213261D01*
X49903295Y-48300615D01*
X50039684Y-48351745D01*
X50101866Y-48358500D01*
X51898134Y-48358500D01*
X51960316Y-48351745D01*
X52096705Y-48300615D01*
X52213261Y-48213261D01*
X52300615Y-48096705D01*
X52351745Y-47960316D01*
X52358500Y-47898134D01*
X52358500Y-46101866D01*
X52351745Y-46039684D01*
X52300615Y-45903295D01*
X52213261Y-45786739D01*
X52096705Y-45699385D01*
X52088296Y-45696233D01*
X52080425Y-45691923D01*
X52081336Y-45690259D01*
X52033510Y-45654337D01*
X52008807Y-45587776D01*
X52008500Y-45578991D01*
X52008500Y-44416306D01*
X52028502Y-44348185D01*
X52039683Y-44334298D01*
X52039596Y-44334229D01*
X52044134Y-44328483D01*
X52049305Y-44323303D01*
X52059009Y-44307561D01*
X52138275Y-44178968D01*
X52138276Y-44178966D01*
X52142115Y-44172738D01*
X52197797Y-44004861D01*
X52208500Y-43900400D01*
X52208500Y-43099600D01*
X52197526Y-42993834D01*
X52141550Y-42826054D01*
X52048478Y-42675652D01*
X51961891Y-42589216D01*
X51927812Y-42526934D01*
X51932815Y-42456114D01*
X51961736Y-42411025D01*
X52044134Y-42328483D01*
X52049305Y-42323303D01*
X52142115Y-42172738D01*
X52184723Y-42044279D01*
X52195632Y-42011389D01*
X52195632Y-42011387D01*
X52197797Y-42004861D01*
X52200236Y-41981062D01*
X52208172Y-41903598D01*
X52208500Y-41900400D01*
X52208500Y-41099600D01*
X52207162Y-41086703D01*
X52198238Y-41000692D01*
X52198237Y-41000688D01*
X52197526Y-40993834D01*
X52159472Y-40879771D01*
X52150476Y-40852807D01*
X52141550Y-40826054D01*
X52048478Y-40675652D01*
X52043296Y-40670479D01*
X52038751Y-40664745D01*
X52040424Y-40663419D01*
X52011402Y-40610375D01*
X52008500Y-40583489D01*
X52008500Y-39421009D01*
X52028502Y-39352888D01*
X52082158Y-39306395D01*
X52087694Y-39304097D01*
X52088297Y-39303767D01*
X52096705Y-39300615D01*
X52213261Y-39213261D01*
X52300615Y-39096705D01*
X52351745Y-38960316D01*
X52358500Y-38898134D01*
X52358500Y-37101866D01*
X52351745Y-37039684D01*
X52300615Y-36903295D01*
X52213261Y-36786739D01*
X52096705Y-36699385D01*
X51960316Y-36648255D01*
X51898134Y-36641500D01*
X50101866Y-36641500D01*
X50039684Y-36648255D01*
X49903295Y-36699385D01*
X49786739Y-36786739D01*
X49699385Y-36903295D01*
X49648255Y-37039684D01*
X49641500Y-37101866D01*
X49641500Y-38898134D01*
X49648255Y-38960316D01*
X49699385Y-39096705D01*
X49786739Y-39213261D01*
X49903295Y-39300615D01*
X49911704Y-39303767D01*
X49919575Y-39308077D01*
X49918664Y-39309741D01*
X49966490Y-39345663D01*
X49991193Y-39412224D01*
X49991500Y-39421009D01*
X49991500Y-40583694D01*
X49971498Y-40651815D01*
X49960317Y-40665702D01*
X49960404Y-40665771D01*
X49955866Y-40671517D01*
X49950695Y-40676697D01*
X49928890Y-40712072D01*
X49924078Y-40719878D01*
X49871306Y-40767371D01*
X49861441Y-40771596D01*
X49860931Y-40771789D01*
X49841278Y-40777173D01*
X49838703Y-40777950D01*
X49831216Y-40779257D01*
X49824259Y-40782311D01*
X49772705Y-40804942D01*
X49766601Y-40807433D01*
X49706844Y-40830013D01*
X49700581Y-40834317D01*
X49698215Y-40835554D01*
X49683403Y-40843799D01*
X49681149Y-40845132D01*
X49674195Y-40848185D01*
X49623498Y-40887087D01*
X49618168Y-40890959D01*
X49571780Y-40922839D01*
X49571775Y-40922844D01*
X49565519Y-40927143D01*
X49563813Y-40929058D01*
X49501429Y-40958196D01*
X49431071Y-40948693D01*
X49406866Y-40934462D01*
X49333892Y-40879771D01*
X49333890Y-40879770D01*
X49326705Y-40874385D01*
X49190316Y-40823255D01*
X49140383Y-40817831D01*
X49074822Y-40790590D01*
X49034395Y-40732227D01*
X49028904Y-40707705D01*
X49025906Y-40682928D01*
X49023102Y-40659758D01*
X49020419Y-40652657D01*
X49019778Y-40650048D01*
X49015315Y-40633738D01*
X49014550Y-40631202D01*
X49013243Y-40623716D01*
X48987556Y-40565200D01*
X48985065Y-40559096D01*
X48965173Y-40506452D01*
X48965172Y-40506451D01*
X48962487Y-40499344D01*
X48958183Y-40493081D01*
X48956946Y-40490715D01*
X48948701Y-40475903D01*
X48947368Y-40473649D01*
X48944315Y-40466695D01*
X48905413Y-40415998D01*
X48901541Y-40410668D01*
X48869661Y-40364280D01*
X48869656Y-40364275D01*
X48865357Y-40358019D01*
X48818829Y-40316564D01*
X48813554Y-40311584D01*
X48021162Y-39519192D01*
X47987136Y-39456880D01*
X47992201Y-39386065D01*
X48034748Y-39329229D01*
X48066027Y-39312116D01*
X48081287Y-39306395D01*
X48088298Y-39303767D01*
X48088300Y-39303766D01*
X48096705Y-39300615D01*
X48213261Y-39213261D01*
X48300615Y-39096705D01*
X48351745Y-38960316D01*
X48358500Y-38898134D01*
X48358500Y-37101866D01*
X48351745Y-37039684D01*
X48300615Y-36903295D01*
X48213261Y-36786739D01*
X48096705Y-36699385D01*
X47960316Y-36648255D01*
X47898134Y-36641500D01*
X46101866Y-36641500D01*
X46039684Y-36648255D01*
X45903295Y-36699385D01*
X45786739Y-36786739D01*
X45699385Y-36903295D01*
X45648255Y-37039684D01*
X45641500Y-37101866D01*
X45641500Y-38335340D01*
X45621498Y-38403461D01*
X45567842Y-38449954D01*
X45497568Y-38460058D01*
X45432988Y-38430564D01*
X45426405Y-38424435D01*
X45158942Y-38156972D01*
X45153088Y-38150706D01*
X45120056Y-38112840D01*
X45120053Y-38112837D01*
X45115061Y-38107115D01*
X45062780Y-38070371D01*
X45057486Y-38066439D01*
X45013193Y-38031709D01*
X45007218Y-38027024D01*
X45000302Y-38023901D01*
X44998016Y-38022517D01*
X44983335Y-38014143D01*
X44980975Y-38012878D01*
X44974761Y-38008510D01*
X44967682Y-38005750D01*
X44967680Y-38005749D01*
X44915225Y-37985298D01*
X44909156Y-37982747D01*
X44850927Y-37956455D01*
X44843460Y-37955071D01*
X44840905Y-37954270D01*
X44824652Y-37949641D01*
X44822072Y-37948978D01*
X44814991Y-37946218D01*
X44807460Y-37945227D01*
X44807458Y-37945226D01*
X44777839Y-37941327D01*
X44751639Y-37937878D01*
X44745141Y-37936848D01*
X44682314Y-37925204D01*
X44674734Y-37925641D01*
X44674733Y-37925641D01*
X44620108Y-37928791D01*
X44612854Y-37929000D01*
X44431940Y-37929000D01*
X44363819Y-37908998D01*
X44333194Y-37881264D01*
X44329968Y-37877194D01*
X44326116Y-37870969D01*
X44297270Y-37842173D01*
X44208184Y-37753242D01*
X44208179Y-37753238D01*
X44203003Y-37748071D01*
X44054920Y-37656791D01*
X43889809Y-37602026D01*
X43882973Y-37601326D01*
X43882970Y-37601325D01*
X43831474Y-37596049D01*
X43787072Y-37591500D01*
X43212928Y-37591500D01*
X43209682Y-37591837D01*
X43209678Y-37591837D01*
X43115765Y-37601581D01*
X43115761Y-37601582D01*
X43108907Y-37602293D01*
X43102371Y-37604474D01*
X43102369Y-37604474D01*
X42969605Y-37648768D01*
X42943893Y-37657346D01*
X42795969Y-37748884D01*
X42790796Y-37754066D01*
X42790791Y-37754070D01*
X42702998Y-37842017D01*
X42640716Y-37876097D01*
X42613825Y-37879000D01*
X42386288Y-37879000D01*
X42318167Y-37858998D01*
X42297271Y-37842173D01*
X42208188Y-37753246D01*
X42208183Y-37753242D01*
X42203003Y-37748071D01*
X42054920Y-37656791D01*
X41889809Y-37602026D01*
X41882973Y-37601326D01*
X41882970Y-37601325D01*
X41831474Y-37596049D01*
X41787072Y-37591500D01*
X41212928Y-37591500D01*
X41209682Y-37591837D01*
X41209678Y-37591837D01*
X41115765Y-37601581D01*
X41115761Y-37601582D01*
X41108907Y-37602293D01*
X41102371Y-37604474D01*
X41102369Y-37604474D01*
X40969605Y-37648768D01*
X40943893Y-37657346D01*
X40795969Y-37748884D01*
X40790796Y-37754066D01*
X40790791Y-37754070D01*
X40702998Y-37842017D01*
X40640716Y-37876097D01*
X40613825Y-37879000D01*
X40386288Y-37879000D01*
X40318167Y-37858998D01*
X40297271Y-37842173D01*
X40208188Y-37753246D01*
X40208183Y-37753242D01*
X40203003Y-37748071D01*
X40054920Y-37656791D01*
X39889809Y-37602026D01*
X39882973Y-37601326D01*
X39882970Y-37601325D01*
X39831474Y-37596049D01*
X39787072Y-37591500D01*
X39212928Y-37591500D01*
X39209682Y-37591837D01*
X39209678Y-37591837D01*
X39115765Y-37601581D01*
X39115761Y-37601582D01*
X39108907Y-37602293D01*
X39102371Y-37604474D01*
X39102369Y-37604474D01*
X38969605Y-37648768D01*
X38943893Y-37657346D01*
X38795969Y-37748884D01*
X38790796Y-37754066D01*
X38678242Y-37866816D01*
X38678238Y-37866821D01*
X38673071Y-37871997D01*
X38669231Y-37878227D01*
X38669230Y-37878228D01*
X38619083Y-37959582D01*
X38581791Y-38020080D01*
X38527026Y-38185191D01*
X38516500Y-38287928D01*
X38516500Y-38887072D01*
X38516837Y-38890318D01*
X38516837Y-38890322D01*
X38524100Y-38960316D01*
X38527293Y-38991093D01*
X38582346Y-39156107D01*
X38673884Y-39304031D01*
X38679066Y-39309204D01*
X38780786Y-39410747D01*
X38814865Y-39473030D01*
X38809862Y-39543850D01*
X38780941Y-39588937D01*
X38678246Y-39691812D01*
X38678242Y-39691817D01*
X38673071Y-39696997D01*
X38581791Y-39845080D01*
X38527026Y-40010191D01*
X38516500Y-40112928D01*
X38516500Y-40712072D01*
X36508500Y-40712072D01*
X36508500Y-37053250D01*
X36510246Y-37032345D01*
X36512770Y-37017344D01*
X36512770Y-37017341D01*
X36513576Y-37012552D01*
X36513729Y-37000000D01*
X36513040Y-36995186D01*
X36513039Y-36995177D01*
X36511869Y-36987006D01*
X36510827Y-36961540D01*
X36526206Y-36707290D01*
X36528040Y-36692186D01*
X36579523Y-36411246D01*
X36583164Y-36396473D01*
X36668141Y-36123773D01*
X36673534Y-36109555D01*
X36790758Y-35849092D01*
X36797828Y-35835621D01*
X36945595Y-35591187D01*
X36954238Y-35578666D01*
X37130385Y-35353829D01*
X37140475Y-35342440D01*
X37342440Y-35140475D01*
X37353829Y-35130385D01*
X37578666Y-34954238D01*
X37591187Y-34945595D01*
X37835621Y-34797828D01*
X37849094Y-34790757D01*
X37891777Y-34771547D01*
X38109555Y-34673534D01*
X38123769Y-34668142D01*
X38396474Y-34583164D01*
X38411240Y-34579525D01*
X38620214Y-34541229D01*
X38692186Y-34528040D01*
X38707290Y-34526206D01*
X38957904Y-34511047D01*
X38984716Y-34512308D01*
X38984852Y-34512310D01*
X38993724Y-34513691D01*
X39002626Y-34512527D01*
X39002628Y-34512527D01*
X39017677Y-34510559D01*
X39025286Y-34509564D01*
X39041621Y-34508500D01*
X51950633Y-34508500D01*
X51970018Y-34510000D01*
G37*
%TD.AperFunction*%
%TD*%
M02*
